<?xml version="1.0" encoding="UTF-8"?>
<svg width="221px" height="460px" viewBox="0 0 221 460" version="1.1" xmlns="http://www.w3.org/2000/svg" xmlns:xlink="http://www.w3.org/1999/xlink">
    <!-- Generator: Sketch 46.2 (44496) - http://www.bohemiancoding.com/sketch -->
    <title>download</title>
    <desc>Created with Sketch.</desc>
    <defs>
        <linearGradient x1="149.865692%" y1="156.927849%" x2="6.30907372%" y2="0%" id="linearGradient-1">
            <stop stop-color="#FAD961" offset="0%"></stop>
            <stop stop-color="#F76B1C" offset="100%"></stop>
        </linearGradient>
        <linearGradient x1="0%" y1="15.2777778%" x2="100%" y2="84.7222222%" id="linearGradient-2">
            <stop stop-color="#33BDBC" offset="0%"></stop>
            <stop stop-color="#7AD699" offset="100%"></stop>
        </linearGradient>
        <linearGradient x1="0%" y1="4.07986114%" x2="80.4390285%" y2="95.9201389%" id="linearGradient-3">
            <stop stop-color="#01356D" offset="0%"></stop>
            <stop stop-color="#7F9CF3" offset="100%"></stop>
        </linearGradient>
        <linearGradient x1="11.8228568%" y1="37.5%" x2="94.1823356%" y2="59.247065%" id="linearGradient-4">
            <stop stop-color="#3023AE" offset="0%"></stop>
            <stop stop-color="#D571E6" offset="100%"></stop>
        </linearGradient>
        <linearGradient x1="11.8228568%" y1="12.3189246%" x2="94.1823356%" y2="77.8751484%" id="linearGradient-5">
            <stop stop-color="#3023AE" offset="0%"></stop>
            <stop stop-color="#D571E6" offset="100%"></stop>
        </linearGradient>
        <linearGradient x1="50%" y1="0%" x2="50%" y2="100%" id="linearGradient-6">
            <stop stop-color="#FFFFFF" offset="0%"></stop>
            <stop stop-color="#D8D8D8" offset="100%"></stop>
        </linearGradient>
        <linearGradient x1="10.5735346%" y1="37.5%" x2="91.4844107%" y2="62.5%" id="linearGradient-7">
            <stop stop-color="#B4EC51" offset="0%"></stop>
            <stop stop-color="#429321" offset="100%"></stop>
        </linearGradient>
        <linearGradient x1="10.5735346%" y1="0.580010882%" x2="91.4844107%" y2="99.4199891%" id="linearGradient-8">
            <stop stop-color="#B4EC51" offset="0%"></stop>
            <stop stop-color="#429321" offset="100%"></stop>
        </linearGradient>
        <linearGradient x1="90.9980629%" y1="62.5%" x2="10.0485367%" y2="37.5%" id="linearGradient-9">
            <stop stop-color="#3479BF" offset="0%"></stop>
            <stop stop-color="#BDE9FF" offset="100%"></stop>
        </linearGradient>
        <linearGradient x1="90.9980629%" y1="99.8725846%" x2="10.0485367%" y2="0.127415427%" id="linearGradient-10">
            <stop stop-color="#3479BF" offset="0%"></stop>
            <stop stop-color="#BDE9FF" offset="100%"></stop>
        </linearGradient>
        <linearGradient x1="89.9545775%" y1="62.5%" x2="14.9328463%" y2="37.5%" id="linearGradient-11">
            <stop stop-color="#313A3F" offset="0%"></stop>
            <stop stop-color="#D5D7D8" offset="100%"></stop>
        </linearGradient>
        <linearGradient x1="89.9545775%" y1="99.8725846%" x2="14.9328463%" y2="0.127415427%" id="linearGradient-12">
            <stop stop-color="#313A3F" offset="0%"></stop>
            <stop stop-color="#D5D7D8" offset="100%"></stop>
        </linearGradient>
        <linearGradient x1="230.325799%" y1="159.92306%" x2="-18.6420477%" y2="11.0570439%" id="linearGradient-13">
            <stop stop-color="#3023AE" offset="0%"></stop>
            <stop stop-color="#C86DD7" offset="100%"></stop>
        </linearGradient>
    </defs>
    <g id="Page-1" stroke="none" stroke-width="1" fill="none" fill-rule="evenodd">
        <g id="download" transform="translate(1.000000, 0.000000)">
            <g id="Group-12" transform="translate(1.000000, 0.000000)" fill-rule="nonzero">
                <path d="M44.4666667,0.0884093272 L23,4.58142868 L1.53333333,0.0232931046 C0.644638889,-0.127776532 0,0.473246203 0,1.32561756 L0,37.13954 C0,37.725586 0.447222222,38.311632 1.02222222,38.4418644 L22.7444444,43 L22.7444444,43 C22.8945833,43 23.0913611,43 23.2555556,43 L23.2555556,43 L44.9777778,38.4418644 C45.5521389,38.311632 46,37.7907022 46,37.13954 L46,1.32561756 C46,0.55724613 45.3604722,-0.0633114714 44.4666667,0.0884093272 Z" id="Shape" fill="url(#linearGradient-1)"></path>
                <g id="Group-5" transform="translate(24.000000, 5.000000)" fill="#FFFFFF">
                    <polygon id="Path" points="19.8055556 15.3496335 0 19.5170718 0 17.1674382 19.8055556 13"></polygon>
                    <polygon id="Path-Copy-3" points="19.8055556 21.3496335 0 25.5170718 0 23.1674382 19.8055556 19"></polygon>
                    <polygon id="Path-Copy-4" points="19.8055556 28.3496335 0 32.5170718 0 30.1674382 19.8055556 26"></polygon>
                    <polygon id="Path-Copy" points="19.8055556 9.34963353 0 13.5170718 0 11.1674382 19.8055556 7"></polygon>
                    <polygon id="Path-Copy-2" points="19.8055556 2.34963353 0 6.51707178 0 4.16743824 19.8055556 0"></polygon>
                </g>
                <g id="Group-5" transform="translate(12.000000, 21.500000) scale(-1, 1) translate(-12.000000, -21.500000) translate(2.000000, 5.000000)" fill="#FFFFFF">
                    <polygon id="Path" points="19.8055556 15.3496335 0 19.5170718 0 17.1674382 19.8055556 13"></polygon>
                    <polygon id="Path-Copy-3" points="19.8055556 21.3496335 0 25.5170718 0 23.1674382 19.8055556 19"></polygon>
                    <polygon id="Path-Copy-4" points="19.8055556 28.3496335 0 32.5170718 0 30.1674382 19.8055556 26"></polygon>
                    <polygon id="Path-Copy" points="19.8055556 9.34963353 0 13.5170718 0 11.1674382 19.8055556 7"></polygon>
                    <polygon id="Path-Copy-2" points="19.8055556 2.34963353 0 6.51707178 0 4.16743824 19.8055556 0"></polygon>
                </g>
            </g>
            <path d="M34.90625,45 L30.53125,45 L30.53125,60.4736842 L26.15625,56.0526316 L21.78125,60.4736842 L21.78125,45 L6.46875,45 C3.4609375,45 1,47.4868421 1,50.5263158 L1,81.4736842 C1,84.5131579 3.4609375,87 6.46875,87 L34.90625,87 C35.5078125,87 36,86.5026316 36,85.8947368 C36,75.8771842 36,69.2058158 36,46.1052632 C36,45.4973684 35.5078125,45 34.90625,45 Z M33.8125,80.3684211 L6.46875,80.3684211 C5.02335937,80.3684211 5.020625,82.5789474 6.46875,82.5789474 L33.8125,82.5789474 L33.8125,84.7894737 L6.46875,84.7894737 C2.13257812,84.7894737 2.12492188,78.1578947 6.46875,78.1578947 L33.8125,78.1578947 L33.8125,80.3684211 Z" id="Shape" fill="url(#linearGradient-2)" fill-rule="nonzero"></path>
            <g id="Group-4" transform="translate(1.000000, 140.000000)" fill-rule="nonzero">
                <path d="M46,21.3293488 C46,9.54957525 35.7023983,0 22.9998527,0 C10.2973072,0 0,9.54957525 0,21.3293488 C0,33.1091223 10.2973072,42.6584044 22.9998527,42.6584044 C23.734533,42.6584044 24.4600813,42.6229346 25.1770869,42.5604961 C27.387903,44.7429128 31.7644648,48.037204 38.0248599,47.9996823 C38.0248599,47.9996823 34.1814863,43.5814977 33.7266562,40.1963335 C41.0242644,36.6209223 46,29.5155365 46,21.3293488" id="Path" fill="url(#linearGradient-3)"></path>
                <path d="M20.860262,28.2380301 L24.9563319,28.2380301 L24.9563319,32 L20.860262,32 L20.860262,28.2380301 Z M16,17.3433653 C16,16.2398486 16.1681206,15.2366666 16.5043668,14.3337893 C16.840613,13.430912 17.3296911,12.6584619 17.9716157,12.0164159 C18.6135403,11.3743698 19.387914,10.8777947 20.2947598,10.5266758 C21.2016057,10.1755568 22.2154238,10 23.3362445,10 C24.2736583,10 25.1448286,10.1354296 25.9497817,10.4062927 C26.7547347,10.6771559 27.4577845,11.0683969 28.058952,11.5800274 C28.6601195,12.0916578 29.1339138,12.7286784 29.4803493,13.4911081 C29.8267848,14.2535378 30,15.1162743 30,16.0793434 C30,16.7815813 29.9235816,17.3885063 29.7707424,17.9001368 C29.6179032,18.4117673 29.4141206,18.8531673 29.1593886,19.2243502 C28.9046567,19.5955331 28.6142666,19.9265831 28.2882096,20.2175103 C27.9621527,20.5084374 27.6361006,20.7943442 27.3100437,21.0752394 C26.922851,21.3962624 26.5662316,21.7072488 26.2401747,22.0082079 C25.9141177,22.309167 25.6288222,22.645233 25.3842795,23.0164159 C25.1397368,23.3875988 24.9512379,23.8239829 24.8187773,24.3255814 C24.6863167,24.8271799 24.6200873,25.4391209 24.6200873,26.1614227 L21.3187773,26.1614227 C21.3187773,25.2786094 21.3646284,24.5312388 21.4563319,23.9192886 C21.5480354,23.3073385 21.6957777,22.7706361 21.8995633,22.3091655 C22.1033489,21.8476949 22.3529825,21.4414062 22.6484716,21.0902873 C22.9439607,20.7391683 23.2954856,20.3930706 23.7030568,20.0519836 C24.0291137,19.7710884 24.3398821,19.5102611 24.6353712,19.2694938 C24.9308603,19.0287266 25.1957776,18.7628834 25.430131,18.4719562 C25.6644844,18.1810291 25.8478887,17.854995 25.9803493,17.493844 C26.11281,17.1326931 26.1790393,16.7013249 26.1790393,16.1997264 C26.1790393,15.5978082 26.0720535,15.0811695 25.8580786,14.6497948 C25.6441037,14.2184201 25.384281,13.8723223 25.0786026,13.6114911 C24.7729242,13.3506599 24.4468722,13.1600553 24.1004367,13.0396717 C23.7540012,12.919288 23.4483274,12.8590971 23.1834061,12.8590971 C21.9199355,12.8590971 20.9876304,13.2653858 20.3864629,14.0779754 C19.7852954,14.8905649 19.4847162,15.9790173 19.4847162,17.3433653 L16,17.3433653 Z" id="?" fill="#FFFFFF"></path>
            </g>
            <g id="Group-2" transform="translate(0.000000, 88.000000)">
                <g id="Polygon">
                    <g id="path-5-link" transform="translate(1.000000, 1.000000)" fill="url(#linearGradient-5)">
                        <path d="M13.3556058,0.251598565 L25.416765,7.26133006 L25.416765,7.26133006 C25.6821198,7.41554959 25.8453952,7.69929014 25.8453952,8.00620521 L25.8453952,22.0355642 L25.8453952,22.0355642 C25.8453952,22.3424792 25.6821198,22.6262198 25.416765,22.7804393 L13.3556058,29.7901708 L13.3556058,29.7901708 C13.0879599,29.9457219 12.7574353,29.9457219 12.4897894,29.7901708 L0.428630249,22.7804393 L0.428630249,22.7804393 C0.163275389,22.6262198 1.59872116e-14,22.3424792 1.33226763e-14,22.0355642 L3.55271368e-15,8.00620521 L3.55271368e-15,8.00620521 C3.55271368e-15,7.69929014 0.163275389,7.41554959 0.428630249,7.26133006 L12.4897894,0.251598565 L12.4897894,0.251598565 C12.7574353,0.0960474926 13.0879599,0.0960474926 13.3556058,0.251598565 Z" id="path-5"></path>
                    </g>
                    <path d="M14.8580886,0.387011328 L26.9192477,7.39674282 C27.4926038,7.72996717 27.8453952,8.34304942 27.8453952,9.00620521 L27.8453952,23.0355642 C27.8453952,23.69872 27.4926038,24.3118022 26.9192477,24.6450266 L14.8580886,31.6547581 C14.2797821,31.9908595 13.5656131,31.9908595 12.9873067,31.6547581 L0.926147502,24.6450266 C0.352791465,24.3118022 0,23.69872 0,23.0355642 L0,9.00620521 C0,8.34304942 0.352791465,7.72996717 0.926147502,7.39674282 L12.9873067,0.387011328 C13.5656131,0.050909905 14.2797821,0.050909905 14.8580886,0.387011328 Z" id="Shape" stroke="#FFFFFF" stroke-width="2"></path>
                </g>
                <g id="Polygon-Copy-2" transform="translate(0.000000, 18.000000)">
                    <g id="path-6-link" transform="translate(1.000000, 1.000000)" fill="url(#linearGradient-5)">
                        <path d="M13.3556058,1.1144304 L25.416765,8.1241619 L25.416765,8.1241619 C25.6821198,8.2783814 25.8453952,8.562122 25.8453952,8.8690371 L25.8453952,22.898396 L25.8453952,22.898396 C25.8453952,23.2053111 25.6821198,23.4890517 25.416765,23.6432712 L13.3556058,30.6530027 L13.3556058,30.6530027 C13.0879599,30.8085537 12.7574353,30.8085537 12.4897894,30.6530027 L0.428630249,23.6432712 L0.428630249,23.6432712 C0.163275389,23.4890517 1.19904087e-14,23.2053111 1.19904087e-14,22.898396 L3.55271368e-15,8.8690371 L3.99680289e-15,8.8690371 C3.99680289e-15,8.562122 0.163275389,8.2783814 0.428630249,8.1241619 L12.4897894,1.1144304 L12.4897894,1.1144304 C12.7574353,0.9588794 13.0879599,0.9588794 13.3556058,1.1144304 Z" id="path-6"></path>
                    </g>
                    <path d="M14.8580886,1.2498432 L26.9192477,8.2595747 C27.4926038,8.592799 27.8453952,9.2058813 27.8453952,9.8690371 L27.8453952,23.898396 C27.8453952,24.5615518 27.4926038,25.1746341 26.9192477,25.5078584 L14.8580886,32.5175899 C14.2797821,32.8536913 13.5656131,32.8536913 12.9873067,32.5175899 L0.926147502,25.5078584 C0.352791465,25.1746341 0,24.5615518 0,23.898396 L0,9.8690371 C0,9.2058813 0.352791465,8.592799 0.926147502,8.2595747 L12.9873067,1.2498432 C13.5656131,0.9137418 14.2797821,0.9137418 14.8580886,1.2498432 Z" id="Shape" stroke="#FFFFFF" stroke-width="2"></path>
                </g>
                <g id="Polygon-Copy" transform="translate(16.000000, 9.000000)">
                    <g id="path-7-link" transform="translate(1.000000, 1.000000)" fill="url(#linearGradient-5)">
                        <path d="M13.509452,0.57460741 L25.5706111,7.5843389 L25.5706111,7.5843389 C25.835966,7.7385584 25.9992414,8.022299 25.9992414,8.3292141 L25.9992414,22.358573 L25.9992414,22.358573 C25.9992414,22.6654881 25.835966,22.9492286 25.5706111,23.1034482 L13.509452,30.1131797 L13.509452,30.1131797 C13.241806,30.2687307 12.9112815,30.2687307 12.6436356,30.1131797 L0.5824764,23.1034482 L0.5824764,23.1034482 C0.3171215,22.9492286 0.1538462,22.6654881 0.1538462,22.358573 L0.1538462,8.3292141 L0.1538462,8.3292141 C0.1538462,8.022299 0.3171215,7.7385584 0.5824764,7.5843389 L12.6436356,0.57460741 L12.6436356,0.57460741 C12.9112815,0.41905634 13.241806,0.41905634 13.509452,0.57460741 Z" id="path-7"></path>
                    </g>
                    <path d="M15.0119347,0.71002018 L27.0730939,7.7197517 C27.6464499,8.052976 27.9992414,8.6660583 27.9992414,9.3292141 L27.9992414,23.358573 C27.9992414,24.0217288 27.6464499,24.6348111 27.0730939,24.9680354 L15.0119347,31.9777669 C14.4336283,32.3138683 13.7194592,32.3138683 13.1411528,31.9777669 L1.0799937,24.9680354 C0.5066376,24.6348111 0.1538462,24.0217288 0.1538462,23.358573 L0.1538462,9.3292141 C0.1538462,8.6660583 0.5066376,8.052976 1.0799937,7.7197517 L13.1411528,0.71002018 C13.7194592,0.37391875 14.4336283,0.37391875 15.0119347,0.71002018 Z" id="Shape" stroke="#FFFFFF" stroke-width="2"></path>
                </g>
            </g>
            <g id="Group-3" transform="translate(0.000000, 256.000000)">
                <g id="Group" transform="translate(158.000000, 29.085106) scale(-1, 1) translate(-158.000000, -29.085106) translate(114.000000, 9.085106)">
                    <g id="Path-2-Copy" transform="translate(44.040828, 20.000000) scale(-1, 1) translate(-44.040828, -20.000000) translate(0.540828, 0.000000)">
                        <g id="path-9-link" fill="url(#linearGradient-6)">
                            <path d="M86.5400085,0 C58.2369355,1.41751928e-13 23.3142021,0 18.7980731,0 C14.281944,0 7.67156096,2.72882729 3.15543193,8.56925283 C10.3482873,16.7630226 9.69336036,14.4514007 0.000820036857,39.0458049 C10.6513367,40.135498 20.5615559,37.5530616 23.9593634,30.5 C28.6685471,30.4794996 58.1529118,30.5 58.7821082,30.5205004 C62.0238795,30.5 67.8303311,28.5531915 69.765815,21.4148936 C73.6367827,21.4148936 78.154162,16.8697065 78.1529118,12.9787234 C82.0238795,12.9787234 86.5400085,7.78723404 86.5400085,3.89361702 C86.5400085,3.46099291 86.5400085,3.24468085 86.5400085,3.24468085 C86.5400085,2.86032025 86.5400085,1.77875996 86.5400085,0 Z" id="path-9"></path>
                        </g>
                        <path d="M84.5200216,1.5 C78.7709833,1.5 78.0838902,1.5 70.9365259,1.5 L18.7980731,1.5 C14.4416959,1.5 8.95442931,4.14100018 5.12276973,8.53651472 C7.99200317,11.804861 7.69085034,11.4744965 8.34335494,12.5528035 C9.34633391,14.2102927 9.67353078,15.8110262 9.39661371,17.8583475 C9.15315159,19.6583275 8.46093419,21.8317741 6.99205957,25.6045407 C6.49494314,26.8813715 3.7660827,33.6457209 2.14328152,37.7144997 C12.0821466,38.3007823 19.9163813,35.4361649 22.6080024,29.8489828 L23.0150256,29.0040967 L23.9528335,29.0000142 C28.5214278,28.9801259 58.1470952,28.9990145 58.7726227,29.0205303 C62.8193346,28.9949397 66.8814064,26.3210099 68.3180878,21.0223557 L68.618366,19.9148936 L69.765815,19.9148936 C72.80583,19.9148936 76.6538966,16.0439013 76.6529118,12.9792054 L76.6524297,11.4787234 L78.1529118,11.4787234 C81.0717392,11.4787234 85.0400085,7.08808669 85.0400085,3.89361702 L85.0400085,3.24468085 C85.0400085,2.74722812 85.0400085,2.51725817 85.0400085,2.0503374 L84.5200216,1.5 Z" id="Shape" stroke="#323232" stroke-width="3"></path>
                    </g>
                    <path d="M62.8709671,18.5212766 L20.4193542,18.5212766 C19.6710975,18.5212766 19.0645155,19.1682252 19.0645155,19.9662766 C19.0645155,20.7643281 19.6710975,21.4112767 20.4193542,21.4112767 L62.8709671,21.4112767 C63.6192239,21.4112767 64.2258059,20.7643281 64.2258059,19.9662766 C64.2258059,19.1682252 63.6192239,18.5212766 62.8709671,18.5212766 Z" id="Path-3-Copy-3" fill="#323232" fill-rule="nonzero" transform="translate(41.645161, 19.966277) scale(-1, 1) translate(-41.645161, -19.966277) "></path>
                    <path d="M55.1290327,10.0851064 L12.6774198,10.0851064 C11.929163,10.0851064 11.322581,10.7320549 11.322581,11.5301064 C11.322581,12.3281579 11.929163,12.9751065 12.6774198,12.9751065 L55.1290327,12.9751065 C55.8772894,12.9751065 56.4838714,12.3281579 56.4838714,11.5301064 C56.4838714,10.7320549 55.8772894,10.0851064 55.1290327,10.0851064 Z" id="Path-3-Copy-4" fill="#323232" fill-rule="nonzero" transform="translate(33.903226, 11.530106) scale(-1, 1) translate(-33.903226, -11.530106) "></path>
                </g>
                <g id="Group" transform="translate(0.000000, 9.085106)">
                    <g id="Path-2-Copy" transform="translate(44.039188, 20.000000) scale(-1, 1) translate(-44.039188, -20.000000) translate(0.539188, 0.000000)">
                        <g id="path-10-link" fill="url(#linearGradient-6)">
                            <path d="M86.5391885,0 C58.2361154,1.41751928e-13 23.3133821,0 18.797253,0 C14.281124,0 7.67074093,2.72882729 3.1546119,8.56925283 C10.3474672,16.7630226 9.69254032,14.4514007 3.12638804e-13,39.0458049 C10.6505166,40.135498 20.5607359,37.5530616 23.9585433,30.5 C28.667727,30.4794996 58.1520917,30.5 58.7812882,30.5205004 C62.0230595,30.5 67.8295111,28.5531915 69.764995,21.4148936 C73.6359627,21.4148936 78.153342,16.8697065 78.1520917,12.9787234 C82.0230595,12.9787234 86.5391885,7.78723404 86.5391885,3.89361702 C86.5391885,3.46099291 86.5391885,3.24468085 86.5391885,3.24468085 C86.5391885,2.86032025 86.5391885,1.77875996 86.5391885,0 Z" id="path-10"></path>
                        </g>
                        <path d="M84.5192016,1.5 C78.7701633,1.5 78.0830701,1.5 70.9357058,1.5 L18.797253,1.5 C14.4408759,1.5 8.95360927,4.14100018 5.1219497,8.53651472 C7.99118313,11.804861 7.6900303,11.4744965 8.34253491,12.5528035 C9.34551387,14.2102927 9.67271075,15.8110262 9.39579367,17.8583475 C9.15233156,19.6583275 8.46011415,21.8317741 6.99123953,25.6045407 C6.4941231,26.8813715 3.76526267,33.6457209 2.14246148,37.7144997 C12.0813265,38.3007823 19.9155613,35.4361649 22.6071823,29.8489828 L23.0142056,29.0040967 L23.9520135,29.0000142 C28.5206078,28.9801259 58.1462751,28.9990145 58.7718027,29.0205303 C62.8185146,28.9949397 66.8805864,26.3210099 68.3172678,21.0223557 L68.6175459,19.9148936 L69.764995,19.9148936 C72.80501,19.9148936 76.6530765,16.0439013 76.6520918,12.9792054 L76.6516097,11.4787234 L78.1520917,11.4787234 C81.0709192,11.4787234 85.0391885,7.08808669 85.0391885,3.89361702 L85.0391885,3.24468085 C85.0391885,2.74722812 85.0391885,2.51725817 85.0391885,2.0503374 L84.5192016,1.5 Z" id="Shape" stroke="#323232" stroke-width="3"></path>
                    </g>
                    <path d="M62.8709671,18.5212766 L20.4193542,18.5212766 C19.6710975,18.5212766 19.0645155,19.1682252 19.0645155,19.9662766 C19.0645155,20.7643281 19.6710975,21.4112767 20.4193542,21.4112767 L62.8709671,21.4112767 C63.6192239,21.4112767 64.2258059,20.7643281 64.2258059,19.9662766 C64.2258059,19.1682252 63.6192239,18.5212766 62.8709671,18.5212766 Z" id="Path-3-Copy-3" fill="#323232" fill-rule="nonzero" transform="translate(41.645161, 19.966277) scale(-1, 1) translate(-41.645161, -19.966277) "></path>
                    <path d="M55.1290327,10.0851064 L12.6774198,10.0851064 C11.929163,10.0851064 11.322581,10.7320549 11.322581,11.5301064 C11.322581,12.3281579 11.929163,12.9751065 12.6774198,12.9751065 L55.1290327,12.9751065 C55.8772894,12.9751065 56.4838714,12.3281579 56.4838714,11.5301064 C56.4838714,10.7320549 55.8772894,10.0851064 55.1290327,10.0851064 Z" id="Path-3-Copy-4" fill="#323232" fill-rule="nonzero" transform="translate(33.903226, 11.530106) scale(-1, 1) translate(-33.903226, -11.530106) "></path>
                </g>
                <g id="Oval" transform="translate(70.000000, 0.000000)">
                    <g id="path-12-link" fill="url(#linearGradient-8)">
                        <ellipse id="path-12" cx="31.000053" cy="30.4974651" rx="30.3200605" ry="30.4974651"></ellipse>
                    </g>
                    <ellipse stroke="#323232" stroke-width="3" cx="31.000053" cy="30.4974651" rx="28.8200605" ry="28.9974651"></ellipse>
                </g>
                <g id="Group-2" transform="translate(78.709677, 15.574468)" fill-rule="nonzero" fill="#FFFFFF">
                    <path d="M6.06148403,14.8863398 L13.6936197,7.25420411 C14.5370262,6.41079761 14.5370262,5.04336549 13.6936197,4.19995899 L13.6936197,4.19995899 L13.6936197,4.19995899 C12.8502132,3.35655249 11.4827811,3.35655249 10.6393746,4.19995899 L10.6393746,4.19995899 L1.53061009,13.3087235 C1.09606409,13.7432695 0.885408028,14.3169229 0.898641892,14.8863398 C0.885408028,15.4557567 1.09606409,16.0294101 1.53061009,16.4639561 L10.6393746,25.5727206 L10.6393746,25.5727206 C11.4827811,26.4161271 12.8502132,26.4161271 13.6936197,25.5727206 L13.6936197,25.5727206 L13.6936197,25.5727206 C14.5370262,24.7293141 14.5370262,23.361882 13.6936197,22.5184755 L6.06148403,14.8863398 Z" id="Combined-Shape"></path>
                    <path d="M34.2181662,14.8863398 L41.8503019,7.25420411 C42.6937084,6.41079761 42.6937084,5.04336549 41.8503019,4.19995899 L41.8503019,4.19995899 L41.8503019,4.19995899 C41.0068954,3.35655249 39.6394632,3.35655249 38.7960568,4.19995899 L38.7960568,4.19995899 L29.6872922,13.3087235 C29.2527462,13.7432695 29.0420902,14.3169229 29.055324,14.8863398 C29.0420902,15.4557567 29.2527462,16.0294101 29.6872922,16.4639561 L38.7960568,25.5727206 L38.7960568,25.5727206 C39.6394632,26.4161271 41.0068954,26.4161271 41.8503019,25.5727206 L41.8503019,25.5727206 L41.8503019,25.5727206 C42.6937084,24.7293141 42.6937084,23.361882 41.8503019,22.5184755 L34.2181662,14.8863398 Z" id="Combined-Shape" transform="translate(35.768797, 14.886340) scale(-1, 1) translate(-35.768797, -14.886340) "></path>
                    <rect id="Rectangle-21" transform="translate(21.711350, 14.925532) rotate(15.000000) translate(-21.711350, -14.925532) " x="19.5516725" y="0.591287563" width="4.31935486" height="28.6684887" rx="2.15967743"></rect>
                </g>
            </g>
            <g id="Group-3-Copy" transform="translate(0.000000, 319.000000)">
                <g id="Group" transform="translate(0.000000, 6.765957)">
                    <g id="Path-2-Copy" transform="translate(46.243698, 21.500000) scale(-1, 1) translate(-46.243698, -21.500000) translate(0.743698, 0.000000)">
                        <g id="path-13-link" fill="url(#linearGradient-6)">
                            <path d="M90.7436982,0 C66.5062599,1.20704886e-13 17.2630352,0 13.3956319,0 C9.52822859,0 3.86740331,2.32621343 1.13686838e-13,7.30493684 C6.1596275,14.2897897 11.1236404,21.1702907 2.82339865,42.1360123 C11.9440068,43.064931 20.4306587,40.8635098 23.3403833,34.8510638 C27.3731097,34.8335881 58.1470131,34.8510638 58.6858278,34.8685395 C61.4619302,34.8510638 66.4343059,33.1914894 68.0917645,27.106383 C71.4066816,27.106383 75.2751556,23.2317972 75.2740849,19.9148936 C78.5890021,19.9148936 82.4564054,15.4893617 82.4564054,12.1702128 C87.9812673,12.1696415 90.7436982,9.03488972 90.7436982,2.76595745 C90.7436982,2.43830579 90.7436982,1.51631997 90.7436982,0 Z" id="path-13"></path>
                        </g>
                        <path d="M88.8060372,1.5 C76.2100957,1.5 75.4248855,1.5 58.5968759,1.5 L13.3956319,1.5 C9.77364152,1.5 5.20390068,3.66780373 1.96945857,7.28429264 C5.70376991,11.6493642 7.47593281,14.7419703 8.30867268,19.2023604 C9.35165063,24.788845 8.34965289,31.6770193 4.94634178,40.7953634 C13.2484117,41.222288 19.7565979,38.8129625 21.9901864,34.1976357 L22.3979153,33.3551339 L23.3338831,33.3510779 C27.2727573,33.3340089 58.1487151,33.3503303 58.6763854,33.3685693 C62.05213,33.3473188 65.4423024,31.1258277 66.6444911,26.7121753 L66.9456863,25.606383 L68.0917645,25.606383 C70.5773288,25.606383 73.7748884,22.4044018 73.774085,19.9153778 L73.7736007,18.4148936 L75.2740849,18.4148936 C77.651181,18.4148936 80.9564054,14.7745054 80.9564054,12.1702128 L80.9564054,10.6703679 L82.4562503,10.6702128 C87.1076072,10.6697318 89.2436982,8.2457382 89.2436982,2.76595745 C89.2436982,2.40500089 89.2436982,2.20925138 89.2436982,1.91351329 L88.8060372,1.5 Z" id="Shape" stroke="#323232" stroke-width="3"></path>
                    </g>
                    <path d="M67.6309059,24.1340364 L26.0829052,24.1340364 C25.3505756,24.1340364 24.7569052,24.8056093 24.7569052,25.6340364 C24.7569052,26.4624636 25.3505756,27.1340364 26.0829052,27.1340364 L67.6309059,27.1340364 C68.3632355,27.1340364 68.9569059,26.4624636 68.9569059,25.6340364 C68.9569059,24.8056093 68.3632355,24.1340364 67.6309059,24.1340364 Z" id="Path-3-Copy-3" fill="#323232" fill-rule="nonzero" transform="translate(46.856906, 25.634036) scale(-1, 1) translate(-46.856906, -25.634036) "></path>
                    <path d="M61.0040051,16.9340548 L19.4560044,16.9340548 C18.7236748,16.9340548 18.1300044,17.6056276 18.1300044,18.4340548 C18.1300044,19.2624819 18.7236748,19.9340548 19.4560044,19.9340548 L61.0040051,19.9340548 C61.7363347,19.9340548 62.3300051,19.2624819 62.3300051,18.4340548 C62.3300051,17.6056276 61.7363347,16.9340548 61.0040051,16.9340548 Z" id="Path-3-Copy-4" fill="#323232" fill-rule="nonzero" transform="translate(40.230005, 18.434055) scale(-1, 1) translate(-40.230005, -18.434055) "></path>
                    <path d="M53.8187526,9.23404255 L12.2707519,9.23404255 C11.5384223,9.23404255 10.9447519,9.90561543 10.9447519,10.7340426 C10.9447519,11.5624697 11.5384223,12.2340426 12.2707519,12.2340426 L53.8187526,12.2340426 C54.5510822,12.2340426 55.1447526,11.5624697 55.1447526,10.7340426 C55.1447526,9.90561543 54.5510822,9.23404255 53.8187526,9.23404255 Z" id="Path-3-Copy-5" fill="#323232" fill-rule="nonzero" transform="translate(33.044752, 10.734043) scale(-1, 1) translate(-33.044752, -10.734043) "></path>
                </g>
                <g id="Group" transform="translate(167.000000, 28.265957) scale(-1, 1) translate(-167.000000, -28.265957) translate(121.000000, 6.765957)">
                    <g id="Path-2-Copy" transform="translate(46.243698, 21.500000) scale(-1, 1) translate(-46.243698, -21.500000) translate(0.743698, 0.000000)">
                        <g id="path-14-link" fill="url(#linearGradient-6)">
                            <path d="M90.7436982,0 C66.5062599,1.20704886e-13 17.2630352,0 13.3956319,0 C9.52822859,0 3.86740331,2.32621343 1.13686838e-13,7.30493684 C6.1596275,14.2897897 11.1236404,21.1702907 2.82339865,42.1360123 C11.9440068,43.064931 20.4306587,40.8635098 23.3403833,34.8510638 C27.3731097,34.8335881 58.1470131,34.8510638 58.6858278,34.8685395 C61.4619302,34.8510638 66.4343059,33.1914894 68.0917645,27.106383 C71.4066816,27.106383 75.2751556,23.2317972 75.2740849,19.9148936 C78.5890021,19.9148936 82.4564054,15.4893617 82.4564054,12.1702128 C87.9812673,12.1696415 90.7436982,9.03488972 90.7436982,2.76595745 C90.7436982,2.43830579 90.7436982,1.51631997 90.7436982,0 Z" id="path-14"></path>
                        </g>
                        <path d="M88.8060372,1.5 C76.2100957,1.5 75.4248855,1.5 58.5968759,1.5 L13.3956319,1.5 C9.77364152,1.5 5.20390068,3.66780373 1.96945857,7.28429264 C5.70376991,11.6493642 7.47593281,14.7419703 8.30867268,19.2023604 C9.35165063,24.788845 8.34965289,31.6770193 4.94634178,40.7953634 C13.2484117,41.222288 19.7565979,38.8129625 21.9901864,34.1976357 L22.3979153,33.3551339 L23.3338831,33.3510779 C27.2727573,33.3340089 58.1487151,33.3503303 58.6763854,33.3685693 C62.05213,33.3473188 65.4423024,31.1258277 66.6444911,26.7121753 L66.9456863,25.606383 L68.0917645,25.606383 C70.5773288,25.606383 73.7748884,22.4044018 73.774085,19.9153778 L73.7736007,18.4148936 L75.2740849,18.4148936 C77.651181,18.4148936 80.9564054,14.7745054 80.9564054,12.1702128 L80.9564054,10.6703679 L82.4562503,10.6702128 C87.1076072,10.6697318 89.2436982,8.2457382 89.2436982,2.76595745 C89.2436982,2.40500089 89.2436982,2.20925138 89.2436982,1.91351329 L88.8060372,1.5 Z" id="Shape" stroke="#323232" stroke-width="3"></path>
                    </g>
                    <path d="M67.6309059,24.1340364 L26.0829052,24.1340364 C25.3505756,24.1340364 24.7569052,24.8056093 24.7569052,25.6340364 C24.7569052,26.4624636 25.3505756,27.1340364 26.0829052,27.1340364 L67.6309059,27.1340364 C68.3632355,27.1340364 68.9569059,26.4624636 68.9569059,25.6340364 C68.9569059,24.8056093 68.3632355,24.1340364 67.6309059,24.1340364 Z" id="Path-3-Copy-3" fill="#323232" fill-rule="nonzero" transform="translate(46.856906, 25.634036) scale(-1, 1) translate(-46.856906, -25.634036) "></path>
                    <path d="M61.0010722,16.9340548 L19.4530714,16.9340548 C18.7207419,16.9340548 18.1270714,17.6056276 18.1270714,18.4340548 C18.1270714,19.2624819 18.7207419,19.9340548 19.4530714,19.9340548 L61.0010722,19.9340548 C61.7334018,19.9340548 62.3270722,19.2624819 62.3270722,18.4340548 C62.3270722,17.6056276 61.7334018,16.9340548 61.0010722,16.9340548 Z" id="Path-3-Copy-4" fill="#323232" fill-rule="nonzero" transform="translate(40.227072, 18.434055) scale(-1, 1) translate(-40.227072, -18.434055) "></path>
                    <path d="M53.8187526,9.23404255 L12.2707519,9.23404255 C11.5384223,9.23404255 10.9447519,9.90561543 10.9447519,10.7340426 C10.9447519,11.5624697 11.5384223,12.2340426 12.2707519,12.2340426 L53.8187526,12.2340426 C54.5510822,12.2340426 55.1447526,11.5624697 55.1447526,10.7340426 C55.1447526,9.90561543 54.5510822,9.23404255 53.8187526,9.23404255 Z" id="Path-3-Copy-5" fill="#323232" fill-rule="nonzero" transform="translate(33.044752, 10.734043) scale(-1, 1) translate(-33.044752, -10.734043) "></path>
                </g>
                <g id="Oval" transform="translate(76.000000, 0.000000)">
                    <g id="path-16-link" fill="url(#linearGradient-10)">
                        <ellipse id="path-16" cx="30.321293" cy="30.3600006" rx="30.3212926" ry="30.3600006"></ellipse>
                    </g>
                    <ellipse stroke="#323232" stroke-width="3" cx="30.321293" cy="30.3600006" rx="28.8212926" ry="28.8600006"></ellipse>
                </g>
                <g id="Group-2" transform="translate(84.000000, 15.000000)" fill-rule="nonzero" fill="#FFFFFF">
                    <path d="M6.05338021,14.9606124 L13.7341347,7.27985784 C14.5788388,6.43515379 14.5788388,5.06561793 13.7341347,4.22091388 L13.7341347,4.22091388 L13.7341347,4.22091388 C12.8894307,3.37620984 11.5198948,3.37620984 10.6751908,4.22091388 L10.6751908,4.22091388 L1.51044007,13.3856646 C1.07652174,13.8195829 0.865504103,14.391994 0.877387155,14.9606124 C0.865504103,15.5292307 1.07652174,16.1016418 1.51044007,16.5355601 L10.6751908,25.7003108 C11.5198948,26.5450149 12.8894307,26.5450149 13.7341347,25.7003108 C14.5788388,24.8556068 14.5788388,23.4860709 13.7341347,22.6413669 L6.05338021,14.9606124 Z" id="Combined-Shape"></path>
                    <path d="M34.2533794,14.9606124 L41.9341339,7.27985784 C42.778838,6.43515379 42.778838,5.06561793 41.9341339,4.22091388 L41.9341339,4.22091388 L41.9341339,4.22091388 C41.0894299,3.37620984 39.719894,3.37620984 38.87519,4.22091388 L38.87519,4.22091388 L29.7104393,13.3856646 C29.2765209,13.8195829 29.0655033,14.391994 29.0773864,14.9606124 C29.0655033,15.5292307 29.2765209,16.1016418 29.7104393,16.5355601 L38.87519,25.7003108 C39.719894,26.5450149 41.0894299,26.5450149 41.9341339,25.7003108 L41.9341339,25.7003108 L41.9341339,25.7003108 C42.778838,24.8556068 42.778838,23.4860709 41.9341339,22.6413669 L34.2533794,14.9606124 Z" id="Combined-Shape" transform="translate(35.822287, 14.960612) scale(-1, 1) translate(-35.822287, -14.960612) "></path>
                    <rect id="Rectangle-21" transform="translate(21.743214, 15.000000) rotate(15.000000) translate(-21.743214, -15.000000) " x="19.5802135" y="0.594237568" width="4.32600002" height="28.8115246" rx="2.16300001"></rect>
                </g>
            </g>
            <g id="Group" transform="translate(1.000000, 234.000000)" fill-rule="nonzero" fill="#EBB55C">
                <circle id="Oval" cx="2.71771429" cy="17.2817143" r="2.57057143"></circle>
                <path d="M0.148285714,7.00171429 L0.148285714,10.428 C5.34428571,10.428 9.572,14.6557143 9.572,19.852 L12.9988571,19.852 C12.9988571,12.7662857 7.23257143,7.00171429 0.148285714,7.00171429 Z" id="Shape"></path>
                <path d="M0.148285714,0.148 L0.148285714,3.57485714 C9.12342857,3.57485714 16.4248571,10.8765714 16.4248571,19.8522857 L19.852,19.8522857 C19.8517143,8.98742857 11.0131429,0.148 0.148285714,0.148 Z" id="Shape"></path>
            </g>
            <path d="M8.85314126,210 C18.2869148,210 23.4489796,202.30315 23.4489796,195.639764 C23.4489796,195.423228 23.4489796,195.206693 23.4389756,194.990157 C24.4393758,194.281496 25.3097239,193.385827 26,192.372047 C25.0796319,192.775591 24.0892357,193.041339 23.0488195,193.169291 C24.1092437,192.549213 24.9195678,191.555118 25.3097239,190.374016 C24.3193277,190.954724 23.2188876,191.36811 22.0484194,191.594488 C21.1080432,190.610236 19.777511,190 18.3069228,190 C15.4757903,190 13.1748699,192.26378 13.1748699,195.049213 C13.1748699,195.442913 13.22489,195.826772 13.304922,196.200787 C9.04321729,195.994094 5.26170468,193.976378 2.73069228,190.925197 C2.29051621,191.673228 2.04041617,192.53937 2.04041617,193.464567 C2.04041617,195.216535 2.95078031,196.761811 4.32132853,197.667323 C3.4809924,197.637795 2.69067627,197.411417 2.00040016,197.037402 C2.00040016,197.057087 2.00040016,197.076772 2.00040016,197.106299 C2.00040016,199.547244 3.77110844,201.594488 6.11204482,202.057087 C5.68187275,202.175197 5.23169268,202.234252 4.7615046,202.234252 C4.43137255,202.234252 4.1112445,202.204724 3.80112045,202.145669 C4.45138055,204.153543 6.35214086,205.610236 8.59303721,205.649606 C6.83233293,207.007874 4.62144858,207.814961 2.2204882,207.814961 C1.81032413,207.814961 1.40016006,207.795276 1,207.746063 C3.26090436,209.163386 5.96198479,210 8.85314126,210" id="Shape" fill="#1DA1F2" fill-rule="nonzero"></path>
            <g id="Group-10" transform="translate(1.000000, 212.000000)" fill-rule="nonzero">
                <polygon id="Fill-55" fill="#FFFFFF" points="4.31372549 19.9372549 18.7582353 19.9372549 18.7582353 2.15686275 4.31372549 2.15686275"></polygon>
                <path d="M18.8960784,0 L1.10372549,0 C0.494117647,0 0,0.493529412 0,1.10254902 L0,18.8743137 C0,19.4831373 0.494117647,19.9768627 1.10372549,19.9768627 L10.682549,19.9768627 L10.682549,12.2407843 L8.07607843,12.2407843 L8.07607843,9.22588235 L10.682549,9.22588235 L10.682549,7.00254902 C10.682549,4.42215686 12.2603922,3.0172549 14.5647059,3.0172549 C15.6686275,3.0172549 16.6172549,3.09921569 16.8937255,3.13607843 L16.8937255,5.83254902 L15.2954902,5.83333333 C14.0421569,5.83333333 13.7996078,6.42803922 13.7996078,7.30098039 L13.7996078,9.22588235 L16.7884314,9.22588235 L16.3994118,12.2407843 L13.7996078,12.2407843 L13.7996078,19.9768627 L18.8960784,19.9768627 C19.5056863,19.9768627 20,19.4831373 20,18.8743137 L20,1.10254902 C20,0.493529412 19.5056863,0 18.8960784,0" id="Fill-56" fill="#3B5998"></path>
            </g>
            <g id="Group-3-Copy-2" transform="translate(0.000000, 382.000000)">
                <g id="Group" transform="translate(0.000000, 23.765957)">
                    <g id="Path-2-Copy" transform="translate(46.243698, 21.500000) scale(-1, 1) translate(-46.243698, -21.500000) translate(0.743698, 0.000000)">
                        <g id="path-17-link" fill="url(#linearGradient-6)">
                            <path d="M90.7436982,0 C66.5062599,1.20704886e-13 17.2630352,0 13.3956319,0 C9.52822859,0 3.86740331,2.32621343 1.13686838e-13,7.30493684 C6.1596275,14.2897897 11.1236404,21.1702907 2.82339865,42.1360123 C11.9440068,43.064931 20.4306587,40.8635098 23.3403833,34.8510638 C27.3731097,34.8335881 58.1470131,34.8510638 58.6858278,34.8685395 C61.4619302,34.8510638 66.4343059,33.1914894 68.0917645,27.106383 C71.4066816,27.106383 75.2751556,23.2317972 75.2740849,19.9148936 C78.5890021,19.9148936 82.4564054,15.4893617 82.4564054,12.1702128 C87.9812673,12.1696415 90.7436982,9.03488972 90.7436982,2.76595745 C90.7436982,2.43830579 90.7436982,1.51631997 90.7436982,0 Z" id="path-17"></path>
                        </g>
                        <path d="M88.8060372,1.5 C76.2100957,1.5 75.4248855,1.5 58.5968759,1.5 L13.3956319,1.5 C9.77364152,1.5 5.20390068,3.66780373 1.96945857,7.28429264 C5.70376991,11.6493642 7.47593281,14.7419703 8.30867268,19.2023604 C9.35165063,24.788845 8.34965289,31.6770193 4.94634178,40.7953634 C13.2484117,41.222288 19.7565979,38.8129625 21.9901864,34.1976357 L22.3979153,33.3551339 L23.3338831,33.3510779 C27.2727573,33.3340089 58.1487151,33.3503303 58.6763854,33.3685693 C62.05213,33.3473188 65.4423024,31.1258277 66.6444911,26.7121753 L66.9456863,25.606383 L68.0917645,25.606383 C70.5773288,25.606383 73.7748884,22.4044018 73.774085,19.9153778 L73.7736007,18.4148936 L75.2740849,18.4148936 C77.651181,18.4148936 80.9564054,14.7745054 80.9564054,12.1702128 L80.9564054,10.6703679 L82.4562503,10.6702128 C87.1076072,10.6697318 89.2436982,8.2457382 89.2436982,2.76595745 C89.2436982,2.40500089 89.2436982,2.20925138 89.2436982,1.91351329 L88.8060372,1.5 Z" id="Shape" stroke="#323232" stroke-width="3"></path>
                    </g>
                    <path d="M67.6309059,24.1340364 L26.0829052,24.1340364 C25.3505756,24.1340364 24.7569052,24.8056093 24.7569052,25.6340364 C24.7569052,26.4624636 25.3505756,27.1340364 26.0829052,27.1340364 L67.6309059,27.1340364 C68.3632355,27.1340364 68.9569059,26.4624636 68.9569059,25.6340364 C68.9569059,24.8056093 68.3632355,24.1340364 67.6309059,24.1340364 Z" id="Path-3-Copy-3" fill="#323232" fill-rule="nonzero" transform="translate(46.856906, 25.634036) scale(-1, 1) translate(-46.856906, -25.634036) "></path>
                    <path d="M61.0040051,16.9340548 L19.4560044,16.9340548 C18.7236748,16.9340548 18.1300044,17.6056276 18.1300044,18.4340548 C18.1300044,19.2624819 18.7236748,19.9340548 19.4560044,19.9340548 L61.0040051,19.9340548 C61.7363347,19.9340548 62.3300051,19.2624819 62.3300051,18.4340548 C62.3300051,17.6056276 61.7363347,16.9340548 61.0040051,16.9340548 Z" id="Path-3-Copy-4" fill="#323232" fill-rule="nonzero" transform="translate(40.230005, 18.434055) scale(-1, 1) translate(-40.230005, -18.434055) "></path>
                    <path d="M53.8187526,9.23404255 L12.2707519,9.23404255 C11.5384223,9.23404255 10.9447519,9.90561543 10.9447519,10.7340426 C10.9447519,11.5624697 11.5384223,12.2340426 12.2707519,12.2340426 L53.8187526,12.2340426 C54.5510822,12.2340426 55.1447526,11.5624697 55.1447526,10.7340426 C55.1447526,9.90561543 54.5510822,9.23404255 53.8187526,9.23404255 Z" id="Path-3-Copy-5" fill="#323232" fill-rule="nonzero" transform="translate(33.044752, 10.734043) scale(-1, 1) translate(-33.044752, -10.734043) "></path>
                </g>
                <g id="Group" transform="translate(167.000000, 45.265957) scale(-1, 1) translate(-167.000000, -45.265957) translate(121.000000, 23.765957)">
                    <g id="Path-2-Copy" transform="translate(46.243698, 21.500000) scale(-1, 1) translate(-46.243698, -21.500000) translate(0.743698, 0.000000)">
                        <g id="path-18-link" fill="url(#linearGradient-6)">
                            <path d="M90.7436982,0 C66.5062599,1.20704886e-13 17.2630352,0 13.3956319,0 C9.52822859,0 3.86740331,2.32621343 1.13686838e-13,7.30493684 C6.1596275,14.2897897 11.1236404,21.1702907 2.82339865,42.1360123 C11.9440068,43.064931 20.4306587,40.8635098 23.3403833,34.8510638 C27.3731097,34.8335881 58.1470131,34.8510638 58.6858278,34.8685395 C61.4619302,34.8510638 66.4343059,33.1914894 68.0917645,27.106383 C71.4066816,27.106383 75.2751556,23.2317972 75.2740849,19.9148936 C78.5890021,19.9148936 82.4564054,15.4893617 82.4564054,12.1702128 C87.9812673,12.1696415 90.7436982,9.03488972 90.7436982,2.76595745 C90.7436982,2.43830579 90.7436982,1.51631997 90.7436982,0 Z" id="path-18"></path>
                        </g>
                        <path d="M88.8060372,1.5 C76.2100957,1.5 75.4248855,1.5 58.5968759,1.5 L13.3956319,1.5 C9.77364152,1.5 5.20390068,3.66780373 1.96945857,7.28429264 C5.70376991,11.6493642 7.47593281,14.7419703 8.30867268,19.2023604 C9.35165063,24.788845 8.34965289,31.6770193 4.94634178,40.7953634 C13.2484117,41.222288 19.7565979,38.8129625 21.9901864,34.1976357 L22.3979153,33.3551339 L23.3338831,33.3510779 C27.2727573,33.3340089 58.1487151,33.3503303 58.6763854,33.3685693 C62.05213,33.3473188 65.4423024,31.1258277 66.6444911,26.7121753 L66.9456863,25.606383 L68.0917645,25.606383 C70.5773288,25.606383 73.7748884,22.4044018 73.774085,19.9153778 L73.7736007,18.4148936 L75.2740849,18.4148936 C77.651181,18.4148936 80.9564054,14.7745054 80.9564054,12.1702128 L80.9564054,10.6703679 L82.4562503,10.6702128 C87.1076072,10.6697318 89.2436982,8.2457382 89.2436982,2.76595745 C89.2436982,2.40500089 89.2436982,2.20925138 89.2436982,1.91351329 L88.8060372,1.5 Z" id="Shape" stroke="#323232" stroke-width="3"></path>
                    </g>
                    <path d="M67.6309059,24.1340364 L26.0829052,24.1340364 C25.3505756,24.1340364 24.7569052,24.8056093 24.7569052,25.6340364 C24.7569052,26.4624636 25.3505756,27.1340364 26.0829052,27.1340364 L67.6309059,27.1340364 C68.3632355,27.1340364 68.9569059,26.4624636 68.9569059,25.6340364 C68.9569059,24.8056093 68.3632355,24.1340364 67.6309059,24.1340364 Z" id="Path-3-Copy-3" fill="#323232" fill-rule="nonzero" transform="translate(46.856906, 25.634036) scale(-1, 1) translate(-46.856906, -25.634036) "></path>
                    <path d="M61.0010722,16.9340548 L19.4530714,16.9340548 C18.7207419,16.9340548 18.1270714,17.6056276 18.1270714,18.4340548 C18.1270714,19.2624819 18.7207419,19.9340548 19.4530714,19.9340548 L61.0010722,19.9340548 C61.7334018,19.9340548 62.3270722,19.2624819 62.3270722,18.4340548 C62.3270722,17.6056276 61.7334018,16.9340548 61.0010722,16.9340548 Z" id="Path-3-Copy-4" fill="#323232" fill-rule="nonzero" transform="translate(40.227072, 18.434055) scale(-1, 1) translate(-40.227072, -18.434055) "></path>
                    <path d="M53.8187526,9.23404255 L12.2707519,9.23404255 C11.5384223,9.23404255 10.9447519,9.90561543 10.9447519,10.7340426 C10.9447519,11.5624697 11.5384223,12.2340426 12.2707519,12.2340426 L53.8187526,12.2340426 C54.5510822,12.2340426 55.1447526,11.5624697 55.1447526,10.7340426 C55.1447526,9.90561543 54.5510822,9.23404255 53.8187526,9.23404255 Z" id="Path-3-Copy-5" fill="#323232" fill-rule="nonzero" transform="translate(33.044752, 10.734043) scale(-1, 1) translate(-33.044752, -10.734043) "></path>
                </g>
                <g id="Oval" transform="translate(76.000000, 17.000000)">
                    <g id="path-20-link" fill="url(#linearGradient-12)">
                        <ellipse id="path-20" cx="30.321293" cy="30.3600006" rx="30.3212926" ry="30.3600006"></ellipse>
                    </g>
                    <ellipse stroke="#323232" stroke-width="3" cx="30.321293" cy="30.3600006" rx="28.8212926" ry="28.8600006"></ellipse>
                </g>
                <g id="Group-2" transform="translate(84.000000, 32.000000)" fill-rule="nonzero" fill="#FFFFFF">
                    <path d="M6.05338021,14.9606124 L13.7341347,7.27985784 C14.5788388,6.43515379 14.5788388,5.06561793 13.7341347,4.22091388 L13.7341347,4.22091388 L13.7341347,4.22091388 C12.8894307,3.37620984 11.5198948,3.37620984 10.6751908,4.22091388 L10.6751908,4.22091388 L1.51044007,13.3856646 C1.07652174,13.8195829 0.865504103,14.391994 0.877387155,14.9606124 C0.865504103,15.5292307 1.07652174,16.1016418 1.51044007,16.5355601 L10.6751908,25.7003108 C11.5198948,26.5450149 12.8894307,26.5450149 13.7341347,25.7003108 C14.5788388,24.8556068 14.5788388,23.4860709 13.7341347,22.6413669 L6.05338021,14.9606124 Z" id="Combined-Shape"></path>
                    <path d="M34.2533794,14.9606124 L41.9341339,7.27985784 C42.778838,6.43515379 42.778838,5.06561793 41.9341339,4.22091388 L41.9341339,4.22091388 L41.9341339,4.22091388 C41.0894299,3.37620984 39.719894,3.37620984 38.87519,4.22091388 L38.87519,4.22091388 L29.7104393,13.3856646 C29.2765209,13.8195829 29.0655033,14.391994 29.0773864,14.9606124 C29.0655033,15.5292307 29.2765209,16.1016418 29.7104393,16.5355601 L38.87519,25.7003108 C39.719894,26.5450149 41.0894299,26.5450149 41.9341339,25.7003108 L41.9341339,25.7003108 L41.9341339,25.7003108 C42.778838,24.8556068 42.778838,23.4860709 41.9341339,22.6413669 L34.2533794,14.9606124 Z" id="Combined-Shape" transform="translate(35.822287, 14.960612) scale(-1, 1) translate(-35.822287, -14.960612) "></path>
                    <rect id="Rectangle-21" transform="translate(21.743214, 15.000000) rotate(15.000000) translate(-21.743214, -15.000000) " x="19.5802135" y="0.594237568" width="4.32600002" height="28.8115246" rx="2.16300001"></rect>
                </g>
                <g id="Group-4" transform="translate(79.000000, 0.000000)" fill-rule="nonzero" fill="#EBB55C">
                    <polygon id="Star" transform="translate(9.541400, 11.257521) rotate(-27.000000) translate(-9.541400, -11.257521) " points="9.54140035 15.4978778 5.30050695 17.6983162 6.11044552 13.0377129 2.67949068 9.73705524 7.42095365 9.05708238 9.54140035 4.81672541 11.661847 9.05708238 16.40331 9.73705524 12.9723551 13.0377129 13.7822937 17.6983162"></polygon>
                    <polygon id="Star-Copy" points="27.4171474 10.6811523 23.176254 12.8815907 23.9861926 8.22098743 20.5552378 4.92032983 25.2967007 4.24035697 27.4171474 0 29.5375941 4.24035697 34.2790571 4.92032983 30.8481023 8.22098743 31.6580408 12.8815907"></polygon>
                    <polygon id="Star-Copy-2" transform="translate(44.802638, 11.257521) rotate(27.000000) translate(-44.802638, -11.257521) " points="44.8026385 15.4978777 40.5617451 17.6983161 41.3716837 13.0377128 37.9407288 9.73705516 42.6821918 9.0570823 44.8026385 4.81672533 46.9230852 9.0570823 51.6645482 9.73705516 48.2335933 13.0377128 49.0435319 17.6983161"></polygon>
                </g>
            </g>
            <path d="M60.5311337,7.0942008 L64.7955966,2.81687215 C65.1922908,2.41898112 65.7873321,2.41898112 66.1840263,2.81687215 C66.5807205,3.21476319 66.5807205,3.81159975 66.1840263,4.20949078 L61.2253486,9.18312875 C61.0270015,9.38207426 60.7294809,9.48154702 60.5311337,9.48154702 C60.2336131,9.48154702 59.9360924,9.38207426 59.7377453,9.18312875 L54.7790676,4.20949078 C54.3823734,3.81159975 54.3823734,3.21476319 54.7790676,2.81687215 C55.1757618,2.41898112 55.7708032,2.41898112 56.1674974,2.81687215 L60.5311337,7.0942008 Z" id="back_arrow" fill="#2A98CB" fill-rule="nonzero" transform="translate(60.481547, 6.000000) rotate(-90.000000) translate(-60.481547, -6.000000) "></path>
            <g id="list_white" transform="translate(71.000000, 0.000000)" fill-rule="nonzero" fill="#FFFFFF">
                <rect id="Rectangle-31" x="0" y="0" width="22.3492063" height="2" rx="1"></rect>
                <rect id="Rectangle-31-Copy" x="0" y="6" width="22.3492063" height="2" rx="1"></rect>
                <rect id="Rectangle-31-Copy-2" x="0" y="12" width="22.3492063" height="2" rx="1"></rect>
            </g>
            <g id="close" transform="translate(96.000000, 0.000000)" fill-rule="nonzero" fill="#FFFFFF">
                <rect id="Rectangle-35" transform="translate(6.717515, 6.717514) rotate(-45.000000) translate(-6.717515, -6.717514) " x="-1.78248541" y="5.717514" width="17" height="2" rx="1"></rect>
                <rect id="Rectangle-35-Copy" transform="translate(6.717514, 6.717515) rotate(45.000000) translate(-6.717514, -6.717515) " x="-1.782486" y="5.71751459" width="17" height="2" rx="1"></rect>
            </g>
            <g id="guides_header" transform="translate(71.000000, 16.000000)" fill-rule="nonzero" fill="#FFFFFF">
                <path d="M58,0.115137728 C59.1658333,-0.0824521488 60,0.72571589 60,1.72638565 L60,48.367773 C60,49.2157982 59.4158333,49.8942184 58.6666667,50.0638234 L30.3333333,56 C30.1191667,56 29.8625,56 29.6666667,56 L1.33333333,50.0638234 C0.583333333,49.8942184 0,49.1309957 0,48.367773 L0,1.72638565 C0,0.616320636 0.840833333,-0.166406646 2,0.0303352061 L30,5.96651178 L58,0.115137728 Z M57.1376812,26.5018483 L57.1376812,23.4418605 L31.3043478,28.8692219 L31.3043478,31.9292098 L57.1376812,26.5018483 Z M57.1376812,34.3158018 L57.1376812,31.255814 L31.3043478,36.6831754 L31.3043478,39.7431632 L57.1376812,34.3158018 Z M57.1376812,43.4320809 L57.1376812,40.372093 L31.3043478,45.7994545 L31.3043478,48.8594423 L57.1376812,43.4320809 Z M57.1376812,18.6878948 L57.1376812,15.627907 L31.3043478,21.0552684 L31.3043478,24.1152563 L57.1376812,18.6878948 Z M57.1376812,9.57161576 L57.1376812,6.51162791 L31.3043478,11.9389893 L31.3043478,14.9989772 L57.1376812,9.57161576 Z M28.4896085,14.9175256 L28.4896085,11.8635387 L2.69565217,6.51162791 L2.69565217,9.65869483 L28.4896085,14.9175256 Z M28.4896085,23.9175256 L28.4896085,20.8635387 L2.69565217,15.5116279 L2.69565217,18.6586948 L28.4896085,23.9175256 Z M28.4896085,31.9175256 L28.4896085,28.8635387 L2.69565217,23.5116279 L2.69565217,26.6586948 L28.4896085,31.9175256 Z M28.4896085,39.9175256 L28.4896085,36.8635387 L2.69565217,31.5116279 L2.69565217,34.6586948 L28.4896085,39.9175256 Z M28.4896085,48.9175256 L28.4896085,45.8635387 L2.69565217,40.5116279 L2.69565217,43.6586948 L28.4896085,48.9175256 Z" id="Combined-Shape"></path>
            </g>
            <path d="M116.53125,96 L110.65625,96 L110.65625,116.631579 L104.78125,110.736842 L98.90625,116.631579 L98.90625,96 L78.34375,96 C74.3046875,96 71,99.3157895 71,103.368421 L71,144.631579 C71,148.684211 74.3046875,152 78.34375,152 L116.53125,152 C117.339062,152 118,151.336842 118,150.526316 C118,137.169579 118,128.274421 118,97.4736842 C118,96.6631579 117.339062,96 116.53125,96 Z M115.0625,143.157895 L78.34375,143.157895 C76.4027969,143.157895 76.399125,146.105263 78.34375,146.105263 L115.0625,146.105263 L115.0625,149.052632 L78.34375,149.052632 C72.5208906,149.052632 72.5106094,140.210526 78.34375,140.210526 L115.0625,140.210526 L115.0625,143.157895 Z" id="docus_header" fill="#FFFFFF" fill-rule="nonzero"></path>
            <g id="flag" transform="translate(71.000000, 74.000000)" fill-rule="nonzero" fill="#FFFFFF">
                <rect id="Rectangle-22" x="0.619047619" y="1.25" width="8.18219462" height="8.26086957" rx="1.25"></rect>
                <rect id="Rectangle-22-Copy" x="4.81780538" y="3.31521739" width="8.18219462" height="8.26086957" rx="1.25"></rect>
                <rect id="Rectangle-10" x="0" y="0" width="1.23809524" height="20" rx="0.619047619"></rect>
            </g>
            <g id="warning" transform="translate(71.000000, 155.000000)">
                <path d="M7.09817619,1.36115567 C8.09744159,-0.415316143 9.90486532,-0.411214966 10.9018238,1.36115567 L16.9697517,12.1485831 C17.9651278,13.9181406 17.0331313,15.5 15.0074602,15.5 L2.99253976,15.5 C0.960779118,15.5 0.036857066,13.9146119 1.03024827,12.1485831 L7.09817619,1.36115567 Z" id="Triangle" stroke="#FFFFFF"></path>
                <path d="M9.78481013,6.89240516 L9.78481013,13.386076 L8.21518987,13.386076 L8.21518987,6.89240516 L9.78481013,6.89240516 Z M10,5.0000001 C10,5.13502187 9.97257411,5.26160288 9.91772152,5.37974694 C9.86286892,5.49789099 9.79008484,5.60126548 9.69936709,5.68987352 C9.60864934,5.77848156 9.50211032,5.84915595 9.37974684,5.90189883 C9.25738335,5.95464171 9.12658297,5.98101276 8.98734177,5.98101276 C8.85232,5.98101276 8.72468415,5.95464171 8.60443038,5.90189883 C8.48417661,5.84915595 8.37974728,5.77848156 8.29113924,5.68987352 C8.2025312,5.60126548 8.1318568,5.49789099 8.07911392,5.37974694 C8.02637104,5.26160288 8,5.13502187 8,5.0000001 C8,4.8607589 8.02637104,4.72995852 8.07911392,4.60759504 C8.1318568,4.48523156 8.2025312,4.37974738 8.29113924,4.29113934 C8.37974728,4.2025313 8.48417661,4.1318569 8.60443038,4.07911402 C8.72468415,4.02637114 8.85232,4.0000001 8.98734177,4.0000001 C9.12658297,4.0000001 9.25738335,4.02637114 9.37974684,4.07911402 C9.50211032,4.1318569 9.60864934,4.2025313 9.69936709,4.29113934 C9.79008484,4.37974738 9.86286892,4.48523156 9.91772152,4.60759504 C9.97257411,4.72995852 10,4.8607589 10,5.0000001 Z" id="i" fill="#FFFFFF" fill-rule="nonzero" transform="translate(9.000000, 8.693038) rotate(180.000000) translate(-9.000000, -8.693038) "></path>
            </g>
            <path d="M90.6940709,190.218084 L85.8639184,185.387748 C88.3896343,182.133289 88.1610486,177.418811 85.1737774,174.431973 C83.6054078,172.863611 81.5203718,172 79.302777,172 C77.0849734,172 75.0001461,172.863611 73.4319853,174.431973 C71.8636157,176.000125 71,178.08515 71,180.302942 C71,182.520734 71.8638245,184.605759 73.4317765,186.174121 C75.0001461,187.742274 77.0849734,188.605885 79.302777,188.605885 C81.1686211,188.605885 82.9390647,187.992568 84.3884444,186.864676 L89.2181794,191.694386 C89.4219234,191.898129 89.6891286,192 89.9561251,192 C90.2231216,192 90.4905356,191.898129 90.6940709,191.694386 C91.1019764,191.286482 91.1019764,190.62557 90.6940709,190.218084 Z M74.9078768,184.697611 C73.7338437,183.523584 73.0873323,181.962738 73.0873323,180.302734 C73.0873323,178.642521 73.7338437,177.081883 74.9080856,175.907856 C76.0819099,174.733829 77.6425556,174.087321 79.302777,174.087321 C80.9627896,174.087321 82.5238528,174.733829 83.6978858,175.907856 C86.1211035,178.331061 86.1211035,182.273988 83.6978858,184.697402 C82.5238528,185.871429 80.9627896,186.517937 79.302777,186.517937 C77.6425556,186.518146 76.0819099,185.871638 74.9078768,184.697611 Z" id="Shape" fill="#9B9B9B" fill-rule="nonzero"></path>
            <g id="Error-Circle-Copy-3" transform="translate(81.142136, 226.142136) rotate(45.000000) translate(-81.142136, -226.142136) translate(71.142136, 216.142136)" fill-rule="nonzero">
                <circle id="Oval-6" fill="#9B9B9B" cx="10" cy="10" r="10"></circle>
                <g id="Group-25" transform="translate(3.333333, 3.333333)" fill="#FFFFFF">
                    <rect id="Rectangle-17" x="5.55555556" y="0" width="2.22222222" height="13.3333333" rx="1.11111111"></rect>
                    <rect id="Rectangle-17" x="0" y="5.55555556" width="13.3333333" height="2.22222222" rx="1.11111111"></rect>
                </g>
            </g>
            <g id="check" transform="translate(71.000000, 194.000000)">
                <circle id="Oval" fill="#65A61E" fill-rule="nonzero" cx="10" cy="10" r="10"></circle>
                <path d="M5.5,10.4255884 L8.17756399,13.2125927 L8.17756399,13.2125927 C8.60270448,13.6551099 9.30608008,13.6691966 9.74859736,13.2440561 C9.80221258,13.1925463 9.85052231,13.1357851 9.89280017,13.0746259 L14.5,6.40985411" id="Path-4" stroke="#FFFFFF" stroke-width="2.22222222" stroke-linecap="round"></path>
            </g>
            <g id="replicated-version" transform="translate(152.000000, 125.000000)">
                <rect id="Rectangle-11" stroke="#326DE6" stroke-width="2" x="0" y="0" width="23" height="28" rx="3.52941176"></rect>
                <path d="M17.1221889,21.9411765 L13.5424943,21.9411765 L11.0919651,16.219318 L9.3621798,16.219318 L9.3621798,21.9411765 L6.14285714,21.9411765 L6.14285714,6.10516154 L12.1250313,6.10516154 C15.0560565,6.10516154 17.0020649,8.19447086 17.0020649,11.1147555 C17.0020649,13.8451029 15.5365524,15.2221476 14.2151886,15.6495064 L17.1221889,21.9411765 Z M11.6445354,13.4177441 C12.8938248,13.4177441 13.7106679,12.5392845 13.7106679,11.1622398 C13.7106679,9.785195 12.8938248,8.9067354 11.6445354,8.9067354 L9.3621798,8.9067354 L9.3621798,13.4177441 L11.6445354,13.4177441 Z" id="R-Copy-4" fill="#326DE6" fill-rule="nonzero"></path>
            </g>
            <g id="Ecosystem" transform="translate(151.000000, 57.000000)">
                <g id="Rectangle-10" transform="translate(16.000000, 8.000000)">
                    <g id="path-21-link" fill="#FFFFFF">
                        <path d="M2.8666667,0 L8.9955605,0 L8.9955605,0 C9.5220244,0 9.9583258,0.40818315 9.9933456,0.93348099 L11.8600123,28.933481 L11.8600123,28.933481 C11.8967497,29.4845425 11.4798077,29.9610477 10.9287462,29.9977852 C10.9066039,29.9992613 10.8844186,30 10.8622271,30 L1,30 L1,30 C0.4477153,30 0,29.5522847 0,29 C0,28.9778086 0.0007387,28.9556233 0.0022148,28.933481 L1.8688815,0.93348099 L1.8688815,0.93348099 C1.9039014,0.40818315 2.3402028,0 2.8666667,0 Z" id="path-21"></path>
                    </g>
                    <polygon id="Shape" stroke="#326DE6" stroke-width="2" points="2.8666667 1 1 29 10.8622271 29 8.9955605 1"></polygon>
                </g>
                <path d="M20.1192002,6.40625 C21.4500107,5.13745117 19.5188584,3.99316406 20.1192002,2.65063477" id="Path-5" stroke="#326DE6" stroke-width="2" stroke-linecap="round"></path>
                <path d="M23.1192002,6.24047852 C24.6157227,5.13769531 21.8693848,1.96508789 23.2989142,0.849609375" id="Path-5-Copy" stroke="#326DE6" stroke-width="2" stroke-linecap="round"></path>
                <g id="Rectangle-12" transform="translate(0.000000, 19.000000)">
                    <g id="path-22-link" fill="#FFFFFF">
                        <rect id="path-22" x="0" y="0" width="18" height="19" rx="1"></rect>
                    </g>
                    <rect id="Rectangle-path" stroke="#326DE6" stroke-width="2" x="1" y="1" width="16" height="17" rx="1"></rect>
                </g>
                <g id="Rectangle-13" transform="translate(4.000000, 23.000000)">
                    <g id="path-23-link" fill="#FFFFFF">
                        <rect id="path-23" x="0" y="0" width="4" height="4" rx="1"></rect>
                    </g>
                    <rect id="Rectangle-path" stroke="#326DE6" x="0.5" y="0.5" width="3" height="3" rx="1"></rect>
                </g>
                <g id="Rectangle-13-Copy-2" transform="translate(4.000000, 29.000000)">
                    <g id="path-24-link" fill="#FFFFFF">
                        <rect id="path-24" x="0" y="0" width="4" height="4" rx="1"></rect>
                    </g>
                    <rect id="Rectangle-path" stroke="#326DE6" x="0.5" y="0.5" width="3" height="3" rx="1"></rect>
                </g>
                <g id="Rectangle-13-Copy" transform="translate(10.000000, 23.000000)">
                    <g id="path-25-link" fill="#FFFFFF">
                        <rect id="path-25" x="0" y="0" width="4" height="4" rx="1"></rect>
                    </g>
                    <rect id="Rectangle-path" stroke="#326DE6" x="0.5" y="0.5" width="3" height="3" rx="1"></rect>
                </g>
                <g id="Rectangle-13-Copy-3" transform="translate(10.000000, 29.000000)">
                    <g id="path-26-link" fill="#FFFFFF">
                        <rect id="path-26" x="0" y="0" width="4" height="4" rx="1"></rect>
                    </g>
                    <rect id="Rectangle-path" stroke="#326DE6" x="0.5" y="0.5" width="3" height="3" rx="1"></rect>
                </g>
            </g>
            <g id="Custom-Checks-icon" transform="translate(152.000000, 26.000000)">
                <polyline id="Path-4" stroke="#326DE6" stroke-width="2" points="16.4224096 0.12173357 16.4224096 7.29107643 22.1557541 7.29107643"></polyline>
                <polygon id="Path-7" stroke="#326DE6" stroke-width="2" points="17.6002203 0.87777615 0.10344407 0.87777615 0.10344407 27.7518509 22.7603058 27.7518509 22.7603058 6.54552437"></polygon>
                <rect id="Rectangle-14" fill="#326DE6" fill-rule="nonzero" x="4" y="8" width="8" height="1" rx="0.5"></rect>
                <rect id="Rectangle-14-Copy-6" fill="#326DE6" fill-rule="nonzero" x="4" y="5" width="6" height="1" rx="0.5"></rect>
                <rect id="Rectangle-14-Copy" fill="#326DE6" fill-rule="nonzero" x="4" y="11" width="15" height="1" rx="0.5"></rect>
                <rect id="Rectangle-14-Copy-2" fill="#326DE6" fill-rule="nonzero" x="4" y="14" width="15" height="1" rx="0.5"></rect>
                <rect id="Rectangle-14-Copy-5" fill="#326DE6" fill-rule="nonzero" x="4" y="23" width="15" height="1" rx="0.5"></rect>
                <rect id="Rectangle-14-Copy-3" fill="#326DE6" fill-rule="nonzero" x="4" y="17" width="12" height="1" rx="0.5"></rect>
                <rect id="Rectangle-14-Copy-4" fill="#326DE6" fill-rule="nonzero" x="4" y="20" width="8" height="1" rx="0.5"></rect>
            </g>
            <g id="Containers" transform="translate(151.000000, 97.000000)">
                <g id="Rectangle-9" transform="translate(0.000000, 11.000000)">
                    <g id="path-27-link" fill="#FFFFFF">
                        <rect id="path-27" x="0" y="0" width="10" height="10" rx="1"></rect>
                    </g>
                    <rect id="Rectangle-path" stroke="#BC4752" stroke-width="2" x="1" y="1" width="8" height="8" rx="1"></rect>
                </g>
                <g id="Rectangle-9-Copy" transform="translate(11.000000, 11.000000)">
                    <g id="path-28-link" fill="#FFFFFF">
                        <rect id="path-28" x="0" y="0" width="10" height="10" rx="1"></rect>
                    </g>
                    <rect id="Rectangle-path" stroke="#BC4752" stroke-width="2" x="1" y="1" width="8" height="8" rx="1"></rect>
                </g>
                <g id="Rectangle-9-Copy-2" transform="translate(22.000000, 11.000000)">
                    <g id="path-29-link" fill="#FFFFFF">
                        <rect id="path-29" x="0" y="0" width="10" height="10" rx="1"></rect>
                    </g>
                    <rect id="Rectangle-path" stroke="#BC4752" stroke-width="2" x="1" y="1" width="8" height="8" rx="1"></rect>
                </g>
                <g id="Rectangle-9-Copy-3" transform="translate(6.000000, 0.000000)">
                    <g id="path-30-link" fill="#FFFFFF">
                        <rect id="path-30" x="0" y="0" width="10" height="10" rx="1"></rect>
                    </g>
                    <rect id="Rectangle-path" stroke="#BC4752" stroke-width="2" x="1" y="1" width="8" height="8" rx="1"></rect>
                </g>
                <g id="Rectangle-9-Copy-4" transform="translate(17.000000, 0.000000)">
                    <g id="path-31-link" fill="#FFFFFF">
                        <rect id="path-31" x="0" y="0" width="10" height="10" rx="1"></rect>
                    </g>
                    <rect id="Rectangle-path" stroke="#BC4752" stroke-width="2" x="1" y="1" width="8" height="8" rx="1"></rect>
                </g>
            </g>
            <g id="Docker" transform="translate(185.000000, 97.000000)">
                <g id="Group-23" transform="translate(2.914286, 0.000000)">
                    <g id="Rectangle-16" transform="translate(0.000000, 7.000000)">
                        <g id="path-32-link" fill="#FFFFFF">
                            <path d="M0.982993197,0.81609195 L4.85714286,0.81609195 L4.85714286,5.7011494 L0,5.7011494 L0,1.79908515 L1.11022302e-16,1.79908515 C4.45371888e-17,1.256193 0.440101045,0.81609195 0.982993197,0.81609195 Z" id="path-32"></path>
                        </g>
                        <path d="M0.85,4.8511494 L4.00714286,4.8511494 L4.00714286,1.66609195 L0.982993197,1.66609195 C0.909543083,1.66609195 0.85,1.72563504 0.85,1.79908515 L0.85,4.8511494 Z" id="Shape" stroke="#BC4752" stroke-width="1.7"></path>
                    </g>
                    <g id="Rectangle-16-Copy" transform="translate(3.000000, 7.000000)">
                        <g id="path-33-link" fill="#FFFFFF">
                            <rect id="path-33" x="0.88571429" y="0.81609195" width="4.85714286" height="4.88505747"></rect>
                        </g>
                        <rect id="Rectangle-path" stroke="#BC4752" stroke-width="1.7" x="1.73571429" y="1.66609195" width="3.15714286" height="3.18505747"></rect>
                    </g>
                    <g id="Rectangle-16-Copy-2" transform="translate(7.000000, 7.000000)">
                        <g id="path-34-link" fill="#FFFFFF">
                            <rect id="path-34" x="0.77142857" y="0.81609195" width="4.85714286" height="4.88505747"></rect>
                        </g>
                        <rect id="Rectangle-path" stroke="#BC4752" stroke-width="1.7" x="1.62142857" y="1.66609195" width="3.15714286" height="3.18505747"></rect>
                    </g>
                    <g id="Rectangle-16-Copy-3" transform="translate(11.000000, 7.000000)">
                        <g id="path-35-link" fill="#FFFFFF">
                            <rect id="path-35" x="0.6571429" y="0.81609195" width="4.85714286" height="4.88505747"></rect>
                        </g>
                        <rect id="Rectangle-path" stroke="#BC4752" stroke-width="1.7" x="1.5071429" y="1.66609195" width="3.15714286" height="3.18505747"></rect>
                    </g>
                    <g id="Rectangle-16-Copy-4" transform="translate(15.000000, 7.000000)">
                        <g id="path-36-link" fill="#FFFFFF">
                            <path d="M0.5428571,0.81609195 L4.4170068,0.81609195 L4.4170068,0.81609195 C4.959899,0.81609195 5.4,1.256193 5.4,1.79908515 L5.4,5.7011494 L0.5428571,5.7011494 L0.5428571,0.81609195 Z" id="path-36"></path>
                        </g>
                        <path d="M1.3928571,1.66609195 L1.3928571,4.8511494 L4.55,4.8511494 L4.55,1.79908515 C4.55,1.72563504 4.4904569,1.66609195 4.4170068,1.66609195 L1.3928571,1.66609195 Z" id="Shape" stroke="#BC4752" stroke-width="1.7"></path>
                    </g>
                    <g id="Rectangle-16-Copy-5" transform="translate(11.000000, 3.000000)">
                        <g id="path-37-link" fill="#FFFFFF">
                            <rect id="path-37" x="0.6571429" y="0.90804598" width="4.85714286" height="4.88505747" rx="0.982993197"></rect>
                        </g>
                        <rect id="Rectangle-path" stroke="#BC4752" stroke-width="1.7" x="1.5071429" y="1.75804598" width="3.15714286" height="3.18505747" rx="0.982993197"></rect>
                    </g>
                    <g id="Rectangle-16-Copy-8" transform="translate(11.000000, 0.000000)">
                        <g id="path-38-link" fill="#FFFFFF">
                            <path d="M1.6401361,0 L4.5312925,0 L4.5312925,1.11022302e-16 C5.0741847,1.1294632e-17 5.5142857,0.440101045 5.5142857,0.982993197 L5.5142857,4.88505747 L0.6571429,4.88505747 L0.6571429,0.982993197 L0.6571429,0.982993197 C0.6571429,0.440101045 1.0972439,2.10749973e-16 1.6401361,0 Z" id="path-38"></path>
                        </g>
                        <path d="M1.5071429,4.03505747 L4.6642857,4.03505747 L4.6642857,0.982993197 C4.6642857,0.909543083 4.6047426,0.85 4.5312925,0.85 L1.6401361,0.85 C1.5666859,0.85 1.5071429,0.909543083 1.5071429,0.982993197 L1.5071429,4.03505747 Z" id="Shape" stroke="#BC4752" stroke-width="1.7"></path>
                    </g>
                    <g id="Rectangle-16-Copy-6" transform="translate(7.000000, 3.000000)">
                        <g id="path-39-link" fill="#FFFFFF">
                            <rect id="path-39" x="0.77142857" y="0.90804598" width="4.85714286" height="4.88505747"></rect>
                        </g>
                        <rect id="Rectangle-path" stroke="#BC4752" stroke-width="1.7" x="1.62142857" y="1.75804598" width="3.15714286" height="3.18505747"></rect>
                    </g>
                    <g id="Rectangle-16-Copy-7" transform="translate(3.000000, 3.000000)">
                        <g id="path-40-link" fill="#FFFFFF">
                            <rect id="path-40" x="0.88571429" y="0.90804598" width="4.85714286" height="4.88505747" rx="0.982993197"></rect>
                        </g>
                        <rect id="Rectangle-path" stroke="#BC4752" stroke-width="1.7" x="1.73571429" y="1.75804598" width="3.15714286" height="3.18505747" rx="0.982993197"></rect>
                    </g>
                </g>
                <g id="Group-24" transform="translate(0.000000, 5.862069)">
                    <path d="M0.860465165,6.65970722 C1.16160472,16.1893387 7.94802968,19.5270702 16.7570795,16.9006291 C21.9088496,15.3646155 26.5753115,11.4263277 28.021982,8.0781539 L28.2232638,7.61230727 L28.7288387,7.56847207 C29.8054732,7.4751239 31.1512481,6.90165283 32.1600501,6.1423044 C32.6074668,5.80552354 32.9357315,5.46766682 33.0867064,5.2062943 C33.0902545,5.20015167 33.0935825,5.19462281 33.0967209,5.18967377 C31.8006865,4.32943261 30.9831592,4.10603172 29.4667116,4.17612431 L28.6278908,4.21489592 L28.5789123,3.37660917 C28.5133439,2.25437992 27.6516581,1.22953191 26.7174638,0.901039177 C26.6610298,0.961218964 26.5993059,1.0453266 26.5379283,1.15311501 C26.2736288,1.61726473 26.1066013,2.34309123 26.1066013,3.32703084 C26.1066013,5.70504001 25.9286023,6.65970722 24.793703,6.65970722 C7.57846915,6.65970722 6.81958632,6.65970722 0.860465165,6.65970722 Z" id="Path-21" stroke="#BC4752" stroke-width="1.7"></path>
                    <ellipse id="Oval-10" fill="#BC4752" fill-rule="nonzero" cx="7.28571429" cy="11.137931" rx="1.21428571" ry="1.23754789"></ellipse>
                </g>
            </g>
            <g id="Installation-Icon" transform="translate(151.000000, 0.000000)">
                <g id="Rectangle-6">
                    <g id="path-41-link" fill="#FFFFFF">
                        <rect id="path-41" x="0" y="0" width="29" height="23" rx="3"></rect>
                    </g>
                    <rect id="Rectangle-path" stroke="#BC4752" stroke-width="2" x="1" y="1" width="27" height="21" rx="3"></rect>
                </g>
                <path d="M8.04132232,9.94285715 L10.5950413,6.25714288 C10.9256198,5.91428573 11.4214876,5.91428573 11.7520661,6.25714288 C12.0826446,6.60000001 12.0826446,7.11428573 11.7520661,7.45714288 L8.61983472,11.7428571 C8.45454546,11.9142857 8.20661158,12 8.04132232,12 C7.79338844,12 7.54545456,11.9142857 7.3801653,11.7428571 L4.24793389,7.45714288 C3.91735538,7.11428573 3.91735538,6.60000001 4.24793389,6.25714288 C4.57851241,5.91428573 5.07438018,5.91428573 5.40495869,6.25714288 L8.04132232,9.94285715 Z" id="down_arrow" fill="#BC4752" fill-rule="nonzero" transform="translate(8.000000, 9.000000) rotate(-90.000000) translate(-8.000000, -9.000000) "></path>
                <rect id="Rectangle-5" fill="#BC4752" fill-rule="nonzero" x="11" y="12" width="7" height="2" rx="1"></rect>
            </g>
            <g id="Custom-Checks-icon" transform="translate(185.000000, 25.000000)">
                <g id="Path-7">
                    <g id="path-42-link" fill="#FFFFFF">
                        <path d="M19.0421524,0.877776154 L1.07583065,0.877776154 L1.07583065,0.877776154 C0.538796371,0.877776154 0.103444067,1.31312846 0.103444067,1.85016274 L0.103444067,28.7794643 L0.103444067,28.7794643 C0.103444067,29.3164986 0.538796371,29.7518509 1.07583065,29.7518509 L23.7879192,29.7518509 L23.7879192,29.7518509 C24.3249535,29.7518509 24.7603058,29.3164986 24.7603058,28.7794643 L24.7603058,7.15849648 L19.0421524,0.877776154 Z" id="path-42"></path>
                    </g>
                    <polygon id="Shape" stroke="#4D9CD7" stroke-width="2" points="18.6002203 1.87777615 1.10344407 1.87777615 1.10344407 28.7518509 23.7603058 28.7518509 23.7603058 7.54552437"></polygon>
                </g>
                <polyline id="Path-4" stroke="#4D9CD7" stroke-width="2" points="17.4224096 1.12173357 17.4224096 8.29107643 23.1557541 8.29107643"></polyline>
                <rect id="Rectangle-14" fill="#4D9CD7" fill-rule="nonzero" x="5" y="9" width="8" height="1" rx="0.5"></rect>
                <rect id="Rectangle-14-Copy-6" fill="#4D9CD7" fill-rule="nonzero" x="5" y="6" width="6" height="1" rx="0.5"></rect>
                <rect id="Rectangle-14-Copy" fill="#4D9CD7" fill-rule="nonzero" x="5" y="12" width="15" height="1" rx="0.5"></rect>
                <rect id="Rectangle-14-Copy-2" fill="#4D9CD7" fill-rule="nonzero" x="5" y="15" width="15" height="1" rx="0.5"></rect>
                <rect id="Rectangle-14-Copy-5" fill="#4D9CD7" fill-rule="nonzero" x="5" y="24" width="15" height="1" rx="0.5"></rect>
                <rect id="Rectangle-14-Copy-3" fill="#4D9CD7" fill-rule="nonzero" x="5" y="18" width="12" height="1" rx="0.5"></rect>
                <rect id="Rectangle-14-Copy-4" fill="#4D9CD7" fill-rule="nonzero" x="5" y="21" width="8" height="1" rx="0.5"></rect>
            </g>
            <g id="Group" transform="translate(185.000000, 57.000000)" fill-rule="nonzero" fill="#4D9CD7">
                <path d="M12.7177645,0.0991256842 C5.699434,0.0991256842 -1.23978947e-05,5.87843853 -1.23978947e-05,12.9622863 C-0.00559481603,13.3570871 0.201831331,13.7243105 0.542838757,13.9233399 C0.883846183,14.1223694 1.30560279,14.1223694 1.64661021,13.9233399 C1.98761764,13.7243105 2.19504379,13.3570871 2.18946137,12.9622863 C2.18946137,7.04711389 6.89748663,2.28859937 12.7177645,2.28859937 C16.683914,2.28859937 20.1530803,4.49434084 21.9546069,7.76228358 L19.1578824,7.76228358 C18.763081,7.7567001 18.3958565,7.96412601 18.1968264,8.30513386 C17.9977963,8.6461417 17.9977963,9.06789914 18.1968264,9.40890699 C18.3958565,9.74991483 18.763081,9.95734074 19.1578824,9.95175726 L24.0841985,9.95175726 C24.6887799,9.95169681 25.1788749,9.46160184 25.1789353,8.85702042 L25.1789353,3.93070463 C25.1835714,3.63442886 25.0679205,3.34892583 24.8583963,3.13940157 C24.648872,2.92987732 24.363369,2.81422647 24.0670932,2.81886253 C23.7767489,2.82339275 23.5000967,2.94307956 23.2980002,3.15159181 C23.0959037,3.36010406 22.9849186,3.64036051 22.9894616,3.93070463 L22.9894616,5.31623095 C20.6610929,2.14715389 16.9110719,0.0991256842 12.7177645,0.0991256842 L12.7177645,0.0991256842 Z M24.6144616,11.8504415 C24.3241168,11.8549717 24.0474642,11.9746589 23.8453676,12.1831717 C23.6432711,12.3916846 23.5322863,12.6719417 23.5368301,12.9622863 C23.5368301,18.8774779 18.8288045,23.6359705 13.0085266,23.6359705 C9.03427611,23.6359705 5.55293084,21.4256147 3.75460663,18.1451811 L6.56840874,18.1451811 C6.96321016,18.1507645 7.33043465,17.9433386 7.52946477,17.6023308 C7.72849489,17.2613229 7.72849489,16.8395655 7.52946477,16.4985576 C7.33043465,16.1575498 6.96321016,15.9501239 6.56840874,15.9557074 L1.64209287,15.9557074 C1.03751144,15.9557678 0.547416472,16.4458628 0.547356023,17.0504442 L0.547356023,21.97676 C0.542812989,22.2671041 0.653798098,22.5473606 0.855894589,22.7558728 C1.05799108,22.9643851 1.33464328,23.0840719 1.6249876,23.0886021 C1.92126339,23.0932382 2.20676644,22.9775873 2.41629071,22.7680631 C2.62581499,22.5585388 2.74146584,22.2730358 2.73682979,21.97676 L2.73682979,20.6083389 C5.06522558,23.7796547 8.815274,25.8254442 13.0085266,25.8254442 C20.0268572,25.8254442 25.7263037,20.0461642 25.7263037,12.9622863 C25.7309413,12.6660096 25.6152911,12.3805051 25.4057667,12.1709797 C25.1962423,11.9614542 24.9107384,11.8458026 24.6144616,11.8504387 L24.6144616,11.8504415 Z" id="Shape"></path>
            </g>
            <g id="Installation-Icon" transform="translate(185.000000, 0.000000)">
                <g id="Rectangle-6">
                    <g id="path-43-link" fill="#FFFFFF">
                        <rect id="path-43" x="0" y="0" width="29" height="23" rx="3"></rect>
                    </g>
                    <rect id="Rectangle-path" stroke="#4D9CD7" stroke-width="2" x="1" y="1" width="27" height="21" rx="3"></rect>
                </g>
                <path d="M8.04132232,9.94285715 L10.5950413,6.25714288 C10.9256198,5.91428573 11.4214876,5.91428573 11.7520661,6.25714288 C12.0826446,6.60000001 12.0826446,7.11428573 11.7520661,7.45714288 L8.61983472,11.7428571 C8.45454546,11.9142857 8.20661158,12 8.04132232,12 C7.79338844,12 7.54545456,11.9142857 7.3801653,11.7428571 L4.24793389,7.45714288 C3.91735538,7.11428573 3.91735538,6.60000001 4.24793389,6.25714288 C4.57851241,5.91428573 5.07438018,5.91428573 5.40495869,6.25714288 L8.04132232,9.94285715 Z" id="down_arrow" fill="#4D9CD7" fill-rule="nonzero" transform="translate(8.000000, 9.000000) rotate(-90.000000) translate(-8.000000, -9.000000) "></path>
                <rect id="Rectangle-5" fill="#4D9CD7" fill-rule="nonzero" x="11" y="12" width="7" height="2" rx="1"></rect>
            </g>
            <g id="Group-2" transform="translate(152.000000, 157.000000)">
                <g id="Polygon">
                    <g id="path-45-link" transform="translate(2.000000, 2.000000)" fill="#FFFFFF">
                        <path d="M14.8312025,0.249288969 L28.3696641,8.07621205 L28.3696641,8.07621205 C28.6359808,8.2301764 28.8,8.51445663 28.8,8.8220759 L28.8,24.4779241 L28.8,24.4779241 C28.8,24.7855434 28.6359808,25.0698236 28.3696641,25.223788 L14.8312025,33.050711 L14.8312025,33.050711 C14.5644215,33.2049438 14.2355785,33.2049438 13.9687975,33.050711 L0.430335921,25.223788 L0.430335921,25.223788 C0.164019205,25.0698236 1.28785871e-14,24.7855434 1.28785871e-14,24.4779241 L3.99680289e-15,8.8220759 L3.55271368e-15,8.8220759 C2.66453526e-15,8.51445663 0.164019205,8.2301764 0.430335921,8.07621205 L13.9687975,0.249288969 L13.9687975,0.249288969 C14.2355785,0.0950561596 14.5644215,0.0950561596 14.8312025,0.249288969 Z" id="path-45"></path>
                    </g>
                    <path d="M17.581957,0.95068672 L31.1204185,8.7776098 C31.8504116,9.19963708 32.3,9.97886951 32.3,10.8220759 L32.3,26.4779241 C32.3,27.3211305 31.8504116,28.1003629 31.1204185,28.5223902 L17.581957,36.3493133 C16.850691,36.7720764 15.949309,36.7720764 15.218043,36.3493133 L1.6795815,28.5223902 C0.94958836,28.1003629 0.5,27.3211305 0.5,26.4779241 L0.5,10.8220759 C0.5,9.97886951 0.94958836,9.19963708 1.6795815,8.7776098 L15.218043,0.95068672 C15.949309,0.52792358 16.850691,0.52792358 17.581957,0.95068672 Z" id="Shape" stroke="url(#linearGradient-13)" stroke-width="3"></path>
                </g>
                <g id="Polygon-Copy-2" transform="translate(0.000000, 21.000000)">
                    <g id="path-46-link" transform="translate(2.000000, 1.000000)" fill="#FFFFFF">
                        <path d="M14.8312025,0.949289 L28.3696641,8.776212 L28.3696641,8.776212 C28.6359808,8.9301764 28.8,9.2144566 28.8,9.5220759 L28.8,25.1779241 L28.8,25.1779241 C28.8,25.4855434 28.6359808,25.7698236 28.3696641,25.923788 L14.8312025,33.750711 L14.8312025,33.750711 C14.5644215,33.9049438 14.2355785,33.9049438 13.9687975,33.750711 L0.430335921,25.923788 L0.430335921,25.923788 C0.164019205,25.7698236 1.687539e-14,25.4855434 1.55431223e-14,25.1779241 L3.99680289e-15,9.5220759 L4.4408921e-15,9.5220759 C4.4408921e-15,9.2144566 0.164019205,8.9301764 0.430335921,8.776212 L13.9687975,0.949289 L13.9687975,0.949289 C14.2355785,0.7950562 14.5644215,0.7950562 14.8312025,0.949289 Z" id="path-46"></path>
                    </g>
                    <path d="M17.581957,0.6506867 L31.1204185,8.4776098 C31.8504116,8.8996371 32.3,9.6788695 32.3,10.5220759 L32.3,26.1779241 C32.3,27.0211305 31.8504116,27.8003629 31.1204185,28.2223902 L17.581957,36.0493133 C16.850691,36.4720764 15.949309,36.4720764 15.218043,36.0493133 L1.6795815,28.2223902 C0.94958836,27.8003629 0.5,27.0211305 0.5,26.1779241 L0.5,10.5220759 C0.5,9.6788695 0.94958836,8.8996371 1.6795815,8.4776098 L15.218043,0.6506867 C15.949309,0.2279236 16.850691,0.2279236 17.581957,0.6506867 Z" id="Shape" stroke="url(#linearGradient-13)" stroke-width="3"></path>
                </g>
                <g id="Polygon-Copy" transform="translate(18.000000, 11.000000)">
                    <g id="path-47-link" transform="translate(2.000000, 1.000000)" fill="#FFFFFF">
                        <path d="M14.8312025,1.049289 L28.3696641,8.876212 L28.3696641,8.876212 C28.6359808,9.0301764 28.8,9.3144566 28.8,9.6220759 L28.8,25.2779241 L28.8,25.2779241 C28.8,25.5855434 28.6359808,25.8698236 28.3696641,26.023788 L14.8312025,33.850711 L14.8312025,33.850711 C14.5644215,34.0049438 14.2355785,34.0049438 13.9687975,33.850711 L0.4303359,26.023788 L0.4303359,26.023788 C0.1640192,25.8698236 0,25.5855434 0,25.2779241 L0,9.6220759 L0,9.6220759 C0,9.3144566 0.1640192,9.0301764 0.4303359,8.876212 L13.9687975,1.049289 L13.9687975,1.049289 C14.2355785,0.8950562 14.5644215,0.8950562 14.8312025,1.049289 Z" id="path-47"></path>
                    </g>
                    <path d="M17.581957,0.75068672 L31.1204185,8.5776098 C31.8504116,8.9996371 32.3,9.7788695 32.3,10.6220759 L32.3,26.2779241 C32.3,27.1211305 31.8504116,27.9003629 31.1204185,28.3223902 L17.581957,36.1493133 C16.850691,36.5720764 15.949309,36.5720764 15.218043,36.1493133 L1.6795815,28.3223902 C0.9495884,27.9003629 0.5,27.1211305 0.5,26.2779241 L0.5,10.6220759 C0.5,9.7788695 0.9495884,8.9996371 1.6795815,8.5776098 L15.218043,0.75068672 C15.949309,0.32792358 16.850691,0.32792358 17.581957,0.75068672 Z" id="Shape" stroke="url(#linearGradient-13)" stroke-width="3"></path>
                </g>
            </g>
        </g>
    </g>
</svg>