<?xml version="1.0" encoding="UTF-8"?>
<svg width="42px" height="41px" viewBox="0 0 42 41" version="1.1" xmlns="http://www.w3.org/2000/svg" xmlns:xlink="http://www.w3.org/1999/xlink">
    <!-- Generator: Sketch 64 (93537) - https://sketch.com -->
    <title>kots!</title>
    <desc>Created with Sketch.</desc>
    <g id="Page-1" stroke="none" stroke-width="1" fill="none" fill-rule="evenodd">
        <g id="Landing-V2" transform="translate(-481.000000, -362.000000)">
            <g id="kots!" transform="translate(481.000000, 362.000000)">
                <path d="M22.2626013,0.626842189 L36.4686758,7.46812707 C37.2912368,7.8642516 37.8886525,8.61338714 38.0918083,9.50347087 L41.6004189,24.8756985 C41.8035747,25.7657822 41.5903595,26.6999389 41.0211296,27.4137307 L31.1902211,39.7413001 C30.6209912,40.4550918 29.7577005,40.8708307 28.8447266,40.8708307 L13.0771736,40.8708307 C12.1641997,40.8708307 11.300909,40.4550918 10.7316791,39.7413001 L0.900770591,27.4137307 C0.331540676,26.6999389 0.118325497,25.7657822 0.321481302,24.8756985 L3.83009194,9.50347087 C4.03324774,8.61338714 4.6306634,7.8642516 5.45322446,7.46812707 L19.6592989,0.626842189 C20.48186,0.23071766 21.4400403,0.23071766 22.2626013,0.626842189 Z" id="Polygon" fill="#326DE6"></path>
                <path d="M17.5753211,15.7092102 L18.859934,23.846608 C19.0204824,24.7677841 19.8233372,25.5354489 20.9474017,25.5354489 L20.9474017,25.5354489 C21.910805,25.5354489 22.8743211,24.7677841 23.0348695,23.846608 L24.3194824,15.7092102 C24.6405791,13.7132386 23.0348695,12.0243977 20.9474017,12.0243977 L20.9474017,12.0243977 C18.8598211,12.0243977 17.4146598,13.7132386 17.5753211,15.7092102 Z" id="Path" fill="#FFFFFF" fill-rule="nonzero"></path>
                <ellipse id="Oval" fill="#FFFFFF" fill-rule="nonzero" cx="20.9472888" cy="29.06675" rx="1.92691935" ry="1.84246023"></ellipse>
            </g>
        </g>
    </g>
</svg>