<?xml version="1.0" encoding="iso-8859-1"?>
<!-- Generator: Adobe Illustrator 19.0.0, SVG Export Plug-In . SVG Version: 6.00 Build 0)  -->
<svg version="1.1" id="Layer_1" xmlns="http://www.w3.org/2000/svg" xmlns:xlink="http://www.w3.org/1999/xlink" x="0px" y="0px"
	 viewBox="0 0 512.001 512.001" style="enable-background:new 0 0 512.001 512.001;" xml:space="preserve">
<g>
	<path style="fill:#79C4F7;" d="M66.984,364.652c-18.787,0-35.365-4.937-47.076-14.297c-11.693-9.345-18.143-22.479-19.172-39.039
		c-2.679-43.154,0.677-104.599,31.889-152.254c19.069-29.115,39.518-39.266,40.379-39.683l6.059-2.94l5.882,12.118l-6.042,2.932
		c-0.447,0.225-18.65,9.585-35.56,35.801c-28.693,44.482-31.695,102.42-29.163,143.191c0.784,12.606,5.54,22.481,14.138,29.353
		c12.319,9.844,32.946,13.574,55.185,9.98l6.649-1.075l2.15,13.298l-6.649,1.075C79.262,364.144,73.008,364.652,66.984,364.652z"/>
	<path style="fill:#79C4F7;" d="M257.178,492.746c-51.946,0-83.022-24.185-99.943-44.475c-18.28-21.918-24.226-43.718-24.469-44.635
		l-1.733-6.509l13.017-3.465l1.732,6.509c0.051,0.189,5.596,20.232,22.146,39.888c21.911,26.022,51.939,39.217,89.251,39.217
		c37.521,0,67.666-13.334,89.599-39.633c16.394-19.657,21.747-39.277,21.8-39.473l1.732-6.509l13.017,3.466l-1.733,6.509
		c-0.244,0.917-6.19,22.717-24.469,44.635C340.2,468.56,309.124,492.746,257.178,492.746z"/>
	<path style="fill:#79C4F7;" d="M445.014,364.652c-6.026,0-12.276-0.508-18.668-1.542l-6.649-1.075l2.15-13.298l6.649,1.075
		c22.234,3.594,42.867-0.136,55.185-9.981c8.598-6.871,13.354-16.747,14.138-29.352c2.532-40.771-0.471-98.708-29.161-143.189
		c-17.036-26.411-35.385-35.714-35.569-35.805l-6.009-2.978l5.882-12.056l6.035,2.928c0.861,0.418,21.309,10.568,40.379,39.683
		c31.213,47.655,34.569,109.1,31.889,152.254c-1.029,16.56-7.477,29.694-19.171,39.039
		C480.382,359.715,463.8,364.652,445.014,364.652z"/>
</g>
<path style="fill:#E6E6E6;" d="M408.615,81.982c-83.638-83.638-219.241-83.638-302.879,0s-83.638,219.241,0,302.879
	s219.241,83.638,302.879,0S492.251,165.62,408.615,81.982z M186.963,303.635c-38.777-38.777-38.777-101.647,0-140.426
	s101.647-38.777,140.426,0s38.777,101.647,0,140.426S225.74,342.412,186.963,303.635z"/>
<path style="fill:#CCCCCC;" d="M164.434,384.861c-83.638-83.638-83.638-219.241,0-302.879
	c34.336-34.336,77.429-54.563,122.09-60.708c-64.128-8.823-131.486,11.404-180.788,60.708c-83.638,83.638-83.638,219.241,0,302.879
	c49.302,49.302,116.661,69.53,180.788,60.708C241.864,439.424,198.77,419.197,164.434,384.861z"/>
<path style="fill:#F2F2F2;" d="M408.615,81.982c-44.468-44.466-103.623-65.291-161.848-62.475
	c51.291,2.481,101.859,23.305,141.031,62.475c83.638,83.638,83.638,219.241,0,302.879c-39.171,39.171-89.74,59.995-141.031,62.475
	c58.226,2.815,117.381-18.008,161.848-62.475C492.251,301.223,492.251,165.62,408.615,81.982z"/>
<g>
	<path style="fill:#F24141;" d="M431.778,108.172l-61.302,61.302v0.012l-18.209,18.197c-6.49,6.502-17.034,6.502-23.524,0
		l-25.826-25.826c-6.502-6.502-6.502-17.034,0-23.524l42.688-42.688l36.823-36.823c6.49-6.502,17.021-6.502,23.524,0l25.826,25.826
		C438.28,91.138,438.28,101.682,431.778,108.172z"/>
	<path style="fill:#F24141;" d="M405.949,408.027l25.831-25.831c6.496-6.496,6.496-17.029,0-23.525l-79.513-79.513
		c-6.496-6.496-17.029-6.496-23.525,0l-25.831,25.831c-6.496,6.496-6.496,17.029,0,23.525l79.513,79.513
		C388.92,414.524,399.453,414.524,405.949,408.027z"/>
</g>
<g>
	<path style="fill:#D83535;" d="M370.476,169.474v0.012l-18.209,18.197c-6.49,6.502-17.034,6.502-23.524,0l-25.826-25.826
		c-6.502-6.502-6.502-17.034,0-23.524l42.688-42.688C345.47,96.49,338.98,137.978,370.476,169.474z"/>
	<path style="fill:#D83535;" d="M370.476,297.373v-0.012l-18.209-18.197c-6.49-6.502-17.034-6.502-23.524,0l-25.826,25.826
		c-6.502,6.502-6.502,17.034,0,23.524l42.688,42.688C345.47,370.357,338.98,328.869,370.476,297.373z"/>
</g>
<g>
	<path style="fill:#F24141;" d="M211.442,328.52l-41.794,41.794l-37.717,37.717c-6.502,6.49-17.034,6.49-23.524,0l-25.838-25.838
		c-6.49-6.49-6.49-17.021,0-23.524l79.511-79.511c6.502-6.502,17.034-6.502,23.524,0l25.838,25.826
		C217.932,311.487,217.932,322.018,211.442,328.52z"/>
	<path style="fill:#F24141;" d="M211.442,161.857l-25.838,25.826c-6.49,6.502-17.021,6.502-23.524,0l-28.606-28.606l-50.905-50.905
		c-6.49-6.49-6.49-17.034,0-23.524l25.838-25.826c6.49-6.502,17.021-6.502,23.524,0l37.717,37.717l41.794,41.794
		C217.932,144.823,217.932,155.355,211.442,161.857z"/>
</g>
<g>
	<path style="fill:#D83535;" d="M82.569,108.172c-6.49-6.49-6.49-17.034,0-23.524l25.838-25.826c6.49-6.502,17.021-6.502,23.524,0
		l37.717,37.717c-15.895,19.079-27.957,40.264-36.174,62.538L82.569,108.172z"/>
	<path style="fill:#D83535;" d="M133.474,307.764c8.217,22.287,20.279,43.472,36.174,62.551l-37.717,37.717
		c-6.502,6.49-17.034,6.49-23.524,0l-25.838-25.838c-6.49-6.49-6.49-17.021,0-23.524L133.474,307.764z"/>
</g>
<g>
</g>
<g>
</g>
<g>
</g>
<g>
</g>
<g>
</g>
<g>
</g>
<g>
</g>
<g>
</g>
<g>
</g>
<g>
</g>
<g>
</g>
<g>
</g>
<g>
</g>
<g>
</g>
<g>
</g>
</svg>
