<?xml version="1.0" encoding="UTF-8"?>
<svg width="250px" height="500px" viewBox="0 0 250 500" version="1.1" xmlns="http://www.w3.org/2000/svg" xmlns:xlink="http://www.w3.org/1999/xlink">
    <!-- Generator: Sketch 46.2 (44496) - http://www.bohemiancoding.com/sketch -->
    <title>main_spritesheet</title>
    <desc>Created with Sketch.</desc>
    <defs>
        <linearGradient x1="164.286535%" y1="156.927849%" x2="0%" y2="0%" id="linearGradient-1">
            <stop stop-color="#FAD961" offset="0%"></stop>
            <stop stop-color="#F76B1C" offset="100%"></stop>
        </linearGradient>
        <linearGradient x1="0%" y1="0%" x2="100%" y2="100%" id="linearGradient-2">
            <stop stop-color="#33BDBC" offset="0%"></stop>
            <stop stop-color="#7AD699" offset="100%"></stop>
        </linearGradient>
        <linearGradient x1="0%" y1="0%" x2="80.4390285%" y2="100%" id="linearGradient-3">
            <stop stop-color="#01356D" offset="0%"></stop>
            <stop stop-color="#7F9CF3" offset="100%"></stop>
        </linearGradient>
        <linearGradient x1="11.8228568%" y1="0%" x2="94.1823356%" y2="86.9882601%" id="linearGradient-4">
            <stop stop-color="#3023AE" offset="0%"></stop>
            <stop stop-color="#D571E6" offset="100%"></stop>
        </linearGradient>
        <path d="M13.3556058,0.251598565 L25.416765,7.26133006 L25.416765,7.26133006 C25.6821198,7.41554959 25.8453952,7.69929014 25.8453952,8.00620521 L25.8453952,22.0355642 L25.8453952,22.0355642 C25.8453952,22.3424792 25.6821198,22.6262198 25.416765,22.7804393 L13.3556058,29.7901708 L13.3556058,29.7901708 C13.0879599,29.9457219 12.7574353,29.9457219 12.4897894,29.7901708 L0.428630249,22.7804393 L0.428630249,22.7804393 C0.163275389,22.6262198 1.59872116e-14,22.3424792 1.33226763e-14,22.0355642 L3.55271368e-15,8.00620521 L3.55271368e-15,8.00620521 C3.55271368e-15,7.69929014 0.163275389,7.41554959 0.428630249,7.26133006 L12.4897894,0.251598565 L12.4897894,0.251598565 C12.7574353,0.0960474926 13.0879599,0.0960474926 13.3556058,0.251598565 Z" id="path-5"></path>
        <path d="M13.3556058,19.1144304 L25.416765,26.1241619 L25.416765,26.1241619 C25.6821198,26.2783814 25.8453952,26.562122 25.8453952,26.8690371 L25.8453952,40.898396 L25.8453952,40.898396 C25.8453952,41.2053111 25.6821198,41.4890517 25.416765,41.6432712 L13.3556058,48.6530027 L13.3556058,48.6530027 C13.0879599,48.8085537 12.7574353,48.8085537 12.4897894,48.6530027 L0.428630249,41.6432712 L0.428630249,41.6432712 C0.163275389,41.4890517 1.19904087e-14,41.2053111 1.19904087e-14,40.898396 L3.55271368e-15,26.8690371 L3.99680289e-15,26.8690371 C3.99680289e-15,26.562122 0.163275389,26.2783814 0.428630249,26.1241619 L12.4897894,19.1144304 L12.4897894,19.1144304 C12.7574353,18.9588794 13.0879599,18.9588794 13.3556058,19.1144304 Z" id="path-6"></path>
        <path d="M29.509452,9.57460741 L41.5706111,16.5843389 L41.5706111,16.5843389 C41.835966,16.7385584 41.9992414,17.022299 41.9992414,17.3292141 L41.9992414,31.358573 L41.9992414,31.358573 C41.9992414,31.6654881 41.835966,31.9492286 41.5706111,32.1034482 L29.509452,39.1131797 L29.509452,39.1131797 C29.241806,39.2687307 28.9112815,39.2687307 28.6436356,39.1131797 L16.5824764,32.1034482 L16.5824764,32.1034482 C16.3171215,31.9492286 16.1538462,31.6654881 16.1538462,31.358573 L16.1538462,17.3292141 L16.1538462,17.3292141 C16.1538462,17.022299 16.3171215,16.7385584 16.5824764,16.5843389 L28.6436356,9.57460741 L28.6436356,9.57460741 C28.9112815,9.41905634 29.241806,9.41905634 29.509452,9.57460741 Z" id="path-7"></path>
        <linearGradient x1="50%" y1="0%" x2="50%" y2="100%" id="linearGradient-8">
            <stop stop-color="#FFFFFF" offset="0%"></stop>
            <stop stop-color="#D8D8D8" offset="100%"></stop>
        </linearGradient>
        <path d="M86.5400085,0 C58.2369355,1.41751928e-13 23.3142021,0 18.7980731,0 C14.281944,0 7.67156096,2.72882729 3.15543193,8.56925283 C10.3482873,16.7630226 9.69336036,14.4514007 0.000820036857,39.0458049 C10.6513367,40.135498 20.5615559,37.5530616 23.9593634,30.5 C28.6685471,30.4794996 58.1529118,30.5 58.7821082,30.5205004 C62.0238795,30.5 67.8303311,28.5531915 69.765815,21.4148936 C73.6367827,21.4148936 78.154162,16.8697065 78.1529118,12.9787234 C82.0238795,12.9787234 86.5400085,7.78723404 86.5400085,3.89361702 C86.5400085,3.46099291 86.5400085,3.24468085 86.5400085,3.24468085 C86.5400085,2.86032025 86.5400085,1.77875996 86.5400085,0 Z" id="path-9"></path>
        <path d="M86.5391885,0 C58.2361154,1.41751928e-13 23.3133821,0 18.797253,0 C14.281124,0 7.67074093,2.72882729 3.1546119,8.56925283 C10.3474672,16.7630226 9.69254032,14.4514007 3.12638804e-13,39.0458049 C10.6505166,40.135498 20.5607359,37.5530616 23.9585433,30.5 C28.667727,30.4794996 58.1520917,30.5 58.7812882,30.5205004 C62.0230595,30.5 67.8295111,28.5531915 69.764995,21.4148936 C73.6359627,21.4148936 78.153342,16.8697065 78.1520917,12.9787234 C82.0230595,12.9787234 86.5391885,7.78723404 86.5391885,3.89361702 C86.5391885,3.46099291 86.5391885,3.24468085 86.5391885,3.24468085 C86.5391885,2.86032025 86.5391885,1.77875996 86.5391885,0 Z" id="path-10"></path>
        <linearGradient x1="10.5735346%" y1="0%" x2="91.4844107%" y2="100%" id="linearGradient-11">
            <stop stop-color="#B4EC51" offset="0%"></stop>
            <stop stop-color="#429321" offset="100%"></stop>
        </linearGradient>
        <ellipse id="path-12" cx="100.000053" cy="30.4974651" rx="30.3200605" ry="30.4974651"></ellipse>
        <path d="M90.7436982,0 C66.5062599,1.20704886e-13 17.2630352,0 13.3956319,0 C9.52822859,0 3.86740331,2.32621343 1.13686838e-13,7.30493684 C6.1596275,14.2897897 11.1236404,21.1702907 2.82339865,42.1360123 C11.9440068,43.064931 20.4306587,40.8635098 23.3403833,34.8510638 C27.3731097,34.8335881 58.1470131,34.8510638 58.6858278,34.8685395 C61.4619302,34.8510638 66.4343059,33.1914894 68.0917645,27.106383 C71.4066816,27.106383 75.2751556,23.2317972 75.2740849,19.9148936 C78.5890021,19.9148936 82.4564054,15.4893617 82.4564054,12.1702128 C87.9812673,12.1696415 90.7436982,9.03488972 90.7436982,2.76595745 C90.7436982,2.43830579 90.7436982,1.51631997 90.7436982,0 Z" id="path-13"></path>
        <path d="M90.7436982,0 C66.5062599,1.20704886e-13 17.2630352,0 13.3956319,0 C9.52822859,0 3.86740331,2.32621343 1.13686838e-13,7.30493684 C6.1596275,14.2897897 11.1236404,21.1702907 2.82339865,42.1360123 C11.9440068,43.064931 20.4306587,40.8635098 23.3403833,34.8510638 C27.3731097,34.8335881 58.1470131,34.8510638 58.6858278,34.8685395 C61.4619302,34.8510638 66.4343059,33.1914894 68.0917645,27.106383 C71.4066816,27.106383 75.2751556,23.2317972 75.2740849,19.9148936 C78.5890021,19.9148936 82.4564054,15.4893617 82.4564054,12.1702128 C87.9812673,12.1696415 90.7436982,9.03488972 90.7436982,2.76595745 C90.7436982,2.43830579 90.7436982,1.51631997 90.7436982,0 Z" id="path-14"></path>
        <linearGradient x1="90.9980629%" y1="100%" x2="10.0485367%" y2="0%" id="linearGradient-15">
            <stop stop-color="#3479BF" offset="0%"></stop>
            <stop stop-color="#BDE9FF" offset="100%"></stop>
        </linearGradient>
        <ellipse id="path-16" cx="105.321293" cy="30.3600006" rx="30.3212926" ry="30.3600006"></ellipse>
        <path d="M90.7436982,0 C66.5062599,1.20704886e-13 17.2630352,0 13.3956319,0 C9.52822859,0 3.86740331,2.32621343 1.13686838e-13,7.30493684 C6.1596275,14.2897897 11.1236404,21.1702907 2.82339865,42.1360123 C11.9440068,43.064931 20.4306587,40.8635098 23.3403833,34.8510638 C27.3731097,34.8335881 58.1470131,34.8510638 58.6858278,34.8685395 C61.4619302,34.8510638 66.4343059,33.1914894 68.0917645,27.106383 C71.4066816,27.106383 75.2751556,23.2317972 75.2740849,19.9148936 C78.5890021,19.9148936 82.4564054,15.4893617 82.4564054,12.1702128 C87.9812673,12.1696415 90.7436982,9.03488972 90.7436982,2.76595745 C90.7436982,2.43830579 90.7436982,1.51631997 90.7436982,0 Z" id="path-17"></path>
        <path d="M90.7436982,0 C66.5062599,1.20704886e-13 17.2630352,0 13.3956319,0 C9.52822859,0 3.86740331,2.32621343 1.13686838e-13,7.30493684 C6.1596275,14.2897897 11.1236404,21.1702907 2.82339865,42.1360123 C11.9440068,43.064931 20.4306587,40.8635098 23.3403833,34.8510638 C27.3731097,34.8335881 58.1470131,34.8510638 58.6858278,34.8685395 C61.4619302,34.8510638 66.4343059,33.1914894 68.0917645,27.106383 C71.4066816,27.106383 75.2751556,23.2317972 75.2740849,19.9148936 C78.5890021,19.9148936 82.4564054,15.4893617 82.4564054,12.1702128 C87.9812673,12.1696415 90.7436982,9.03488972 90.7436982,2.76595745 C90.7436982,2.43830579 90.7436982,1.51631997 90.7436982,0 Z" id="path-18"></path>
        <linearGradient x1="89.9545775%" y1="100%" x2="14.9328463%" y2="0%" id="linearGradient-19">
            <stop stop-color="#313A3F" offset="0%"></stop>
            <stop stop-color="#D5D7D8" offset="100%"></stop>
        </linearGradient>
        <ellipse id="path-20" cx="105.321293" cy="47.3600006" rx="30.3212926" ry="30.3600006"></ellipse>
        <path d="M18.8666667,8 L24.9955605,8 L24.9955605,8 C25.5220244,8 25.9583258,8.40818315 25.9933456,8.93348099 L27.8600123,36.933481 L27.8600123,36.933481 C27.8967497,37.4845425 27.4798077,37.9610477 26.9287462,37.9977852 C26.9066039,37.9992613 26.8844186,38 26.8622271,38 L17,38 L17,38 C16.4477153,38 16,37.5522847 16,37 C16,36.9778086 16.0007387,36.9556233 16.0022148,36.933481 L17.8688815,8.93348099 L17.8688815,8.93348099 C17.9039014,8.40818315 18.3402028,8 18.8666667,8 Z" id="path-21"></path>
        <rect id="path-22" x="0" y="19" width="18" height="19" rx="1"></rect>
        <rect id="path-23" x="4" y="23" width="4" height="4" rx="1"></rect>
        <rect id="path-24" x="4" y="29" width="4" height="4" rx="1"></rect>
        <rect id="path-25" x="10" y="23" width="4" height="4" rx="1"></rect>
        <rect id="path-26" x="10" y="29" width="4" height="4" rx="1"></rect>
        <rect id="path-27" x="0" y="11" width="10" height="10" rx="1"></rect>
        <rect id="path-28" x="11" y="11" width="10" height="10" rx="1"></rect>
        <rect id="path-29" x="22" y="11" width="10" height="10" rx="1"></rect>
        <rect id="path-30" x="6" y="0" width="10" height="10" rx="1"></rect>
        <rect id="path-31" x="17" y="0" width="10" height="10" rx="1"></rect>
        <path d="M0.982993197,7.81609195 L4.85714286,7.81609195 L4.85714286,12.7011494 L0,12.7011494 L0,8.79908515 L1.11022302e-16,8.79908515 C4.45371888e-17,8.256193 0.440101045,7.81609195 0.982993197,7.81609195 Z" id="path-32"></path>
        <rect id="path-33" x="3.88571429" y="7.81609195" width="4.85714286" height="4.88505747"></rect>
        <rect id="path-34" x="7.77142857" y="7.81609195" width="4.85714286" height="4.88505747"></rect>
        <rect id="path-35" x="11.6571429" y="7.81609195" width="4.85714286" height="4.88505747"></rect>
        <path d="M15.5428571,7.81609195 L19.4170068,7.81609195 L19.4170068,7.81609195 C19.959899,7.81609195 20.4,8.256193 20.4,8.79908515 L20.4,12.7011494 L15.5428571,12.7011494 L15.5428571,7.81609195 Z" id="path-36"></path>
        <rect id="path-37" x="11.6571429" y="3.90804598" width="4.85714286" height="4.88505747" rx="0.982993197"></rect>
        <path d="M12.6401361,0 L15.5312925,0 L15.5312925,1.11022302e-16 C16.0741847,1.1294632e-17 16.5142857,0.440101045 16.5142857,0.982993197 L16.5142857,4.88505747 L11.6571429,4.88505747 L11.6571429,0.982993197 L11.6571429,0.982993197 C11.6571429,0.440101045 12.0972439,2.10749973e-16 12.6401361,1.11022302e-16 Z" id="path-38"></path>
        <rect id="path-39" x="7.77142857" y="3.90804598" width="4.85714286" height="4.88505747"></rect>
        <rect id="path-40" x="3.88571429" y="3.90804598" width="4.85714286" height="4.88505747" rx="0.982993197"></rect>
        <rect id="path-41" x="0" y="0" width="29" height="23" rx="3"></rect>
        <path d="M19.0421524,0.877776154 L1.07583065,0.877776154 L1.07583065,0.877776154 C0.538796371,0.877776154 0.103444067,1.31312846 0.103444067,1.85016274 L0.103444067,28.7794643 L0.103444067,28.7794643 C0.103444067,29.3164986 0.538796371,29.7518509 1.07583065,29.7518509 L23.7879192,29.7518509 L23.7879192,29.7518509 C24.3249535,29.7518509 24.7603058,29.3164986 24.7603058,28.7794643 L24.7603058,7.15849648 L19.0421524,0.877776154 Z" id="path-42"></path>
        <rect id="path-43" x="0" y="0" width="29" height="23" rx="3"></rect>
    </defs>
    <g id="Page-1" stroke="none" stroke-width="1" fill="none" fill-rule="evenodd">
        <g id="main_spritesheet">
            <g id="Group-12">
                <path d="M44.4666667,0.0884093272 L23,4.58142868 L1.53333333,0.0232931046 C0.644638889,-0.127776532 0,0.473246203 0,1.32561756 L0,37.13954 C0,37.725586 0.447222222,38.311632 1.02222222,38.4418644 L22.7444444,43 L22.7444444,43 C22.8945833,43 23.0913611,43 23.2555556,43 L23.2555556,43 L44.9777778,38.4418644 C45.5521389,38.311632 46,37.7907022 46,37.13954 L46,1.32561756 C46,0.55724613 45.3604722,-0.0633114714 44.4666667,0.0884093272 Z" id="Shape" fill="url(#linearGradient-1)" fill-rule="nonzero"></path>
                <g id="Group-5" transform="translate(24.000000, 5.000000)" fill="#FFFFFF">
                    <polygon id="Path" points="19.8055556 15.3496335 0 19.5170718 0 17.1674382 19.8055556 13"></polygon>
                    <polygon id="Path-Copy-3" points="19.8055556 21.3496335 0 25.5170718 0 23.1674382 19.8055556 19"></polygon>
                    <polygon id="Path-Copy-4" points="19.8055556 28.3496335 0 32.5170718 0 30.1674382 19.8055556 26"></polygon>
                    <polygon id="Path-Copy" points="19.8055556 9.34963353 0 13.5170718 0 11.1674382 19.8055556 7"></polygon>
                    <polygon id="Path-Copy-2" points="19.8055556 2.34963353 0 6.51707178 0 4.16743824 19.8055556 0"></polygon>
                </g>
                <g id="Group-5" transform="translate(12.000000, 21.500000) scale(-1, 1) translate(-12.000000, -21.500000) translate(2.000000, 5.000000)" fill="#FFFFFF">
                    <polygon id="Path" points="19.8055556 15.3496335 0 19.5170718 0 17.1674382 19.8055556 13"></polygon>
                    <polygon id="Path-Copy-3" points="19.8055556 21.3496335 0 25.5170718 0 23.1674382 19.8055556 19"></polygon>
                    <polygon id="Path-Copy-4" points="19.8055556 28.3496335 0 32.5170718 0 30.1674382 19.8055556 26"></polygon>
                    <polygon id="Path-Copy" points="19.8055556 9.34963353 0 13.5170718 0 11.1674382 19.8055556 7"></polygon>
                    <polygon id="Path-Copy-2" points="19.8055556 2.34963353 0 6.51707178 0 4.16743824 19.8055556 0"></polygon>
                </g>
            </g>
            <path d="M33.90625,45 L29.53125,45 L29.53125,60.4736842 L25.15625,56.0526316 L20.78125,60.4736842 L20.78125,45 L5.46875,45 C2.4609375,45 0,47.4868421 0,50.5263158 L0,81.4736842 C0,84.5131579 2.4609375,87 5.46875,87 L33.90625,87 C34.5078125,87 35,86.5026316 35,85.8947368 C35,75.8771842 35,69.2058158 35,46.1052632 C35,45.4973684 34.5078125,45 33.90625,45 Z M32.8125,80.3684211 L5.46875,80.3684211 C4.02335937,80.3684211 4.020625,82.5789474 5.46875,82.5789474 L32.8125,82.5789474 L32.8125,84.7894737 L5.46875,84.7894737 C1.13257812,84.7894737 1.12492188,78.1578947 5.46875,78.1578947 L32.8125,78.1578947 L32.8125,80.3684211 Z" id="Shape" fill="url(#linearGradient-2)" fill-rule="nonzero"></path>
            <g id="Group-4" transform="translate(0.000000, 140.000000)">
                <path d="M46,21.3293488 C46,9.54957525 35.7023983,0 22.9998527,0 C10.2973072,0 0,9.54957525 0,21.3293488 C0,33.1091223 10.2973072,42.6584044 22.9998527,42.6584044 C23.734533,42.6584044 24.4600813,42.6229346 25.1770869,42.5604961 C27.387903,44.7429128 31.7644648,48.037204 38.0248599,47.9996823 C38.0248599,47.9996823 34.1814863,43.5814977 33.7266562,40.1963335 C41.0242644,36.6209223 46,29.5155365 46,21.3293488" id="Path" fill="url(#linearGradient-3)"></path>
                <path d="M20.860262,28.2380301 L24.9563319,28.2380301 L24.9563319,32 L20.860262,32 L20.860262,28.2380301 Z M16,17.3433653 C16,16.2398486 16.1681206,15.2366666 16.5043668,14.3337893 C16.840613,13.430912 17.3296911,12.6584619 17.9716157,12.0164159 C18.6135403,11.3743698 19.387914,10.8777947 20.2947598,10.5266758 C21.2016057,10.1755568 22.2154238,10 23.3362445,10 C24.2736583,10 25.1448286,10.1354296 25.9497817,10.4062927 C26.7547347,10.6771559 27.4577845,11.0683969 28.058952,11.5800274 C28.6601195,12.0916578 29.1339138,12.7286784 29.4803493,13.4911081 C29.8267848,14.2535378 30,15.1162743 30,16.0793434 C30,16.7815813 29.9235816,17.3885063 29.7707424,17.9001368 C29.6179032,18.4117673 29.4141206,18.8531673 29.1593886,19.2243502 C28.9046567,19.5955331 28.6142666,19.9265831 28.2882096,20.2175103 C27.9621527,20.5084374 27.6361006,20.7943442 27.3100437,21.0752394 C26.922851,21.3962624 26.5662316,21.7072488 26.2401747,22.0082079 C25.9141177,22.309167 25.6288222,22.645233 25.3842795,23.0164159 C25.1397368,23.3875988 24.9512379,23.8239829 24.8187773,24.3255814 C24.6863167,24.8271799 24.6200873,25.4391209 24.6200873,26.1614227 L21.3187773,26.1614227 C21.3187773,25.2786094 21.3646284,24.5312388 21.4563319,23.9192886 C21.5480354,23.3073385 21.6957777,22.7706361 21.8995633,22.3091655 C22.1033489,21.8476949 22.3529825,21.4414062 22.6484716,21.0902873 C22.9439607,20.7391683 23.2954856,20.3930706 23.7030568,20.0519836 C24.0291137,19.7710884 24.3398821,19.5102611 24.6353712,19.2694938 C24.9308603,19.0287266 25.1957776,18.7628834 25.430131,18.4719562 C25.6644844,18.1810291 25.8478887,17.854995 25.9803493,17.493844 C26.11281,17.1326931 26.1790393,16.7013249 26.1790393,16.1997264 C26.1790393,15.5978082 26.0720535,15.0811695 25.8580786,14.6497948 C25.6441037,14.2184201 25.384281,13.8723223 25.0786026,13.6114911 C24.7729242,13.3506599 24.4468722,13.1600553 24.1004367,13.0396717 C23.7540012,12.919288 23.4483274,12.8590971 23.1834061,12.8590971 C21.9199355,12.8590971 20.9876304,13.2653858 20.3864629,14.0779754 C19.7852954,14.8905649 19.4847162,15.9790173 19.4847162,17.3433653 L16,17.3433653 Z" id="?" fill="#FFFFFF"></path>
            </g>
            <g id="Group-2" transform="translate(0.000000, 89.000000)">
                <g id="Polygon">
                    <use fill="url(#linearGradient-4)" fill-rule="evenodd" xlink:href="#path-5"></use>
                    <path stroke="#FFFFFF" stroke-width="2" d="M13.8580886,-0.612988672 L25.9192477,6.39674282 C26.4926038,6.72996717 26.8453952,7.34304942 26.8453952,8.00620521 L26.8453952,22.0355642 C26.8453952,22.69872 26.4926038,23.3118022 25.9192477,23.6450266 L13.8580886,30.6547581 C13.2797821,30.9908595 12.5656131,30.9908595 11.9873067,30.6547581 L-0.0738524977,23.6450266 C-0.647208535,23.3118022 -1,22.69872 -1,22.0355642 L-1,8.00620521 C-1,7.34304942 -0.647208535,6.72996717 -0.0738524977,6.39674282 L11.9873067,-0.612988672 C12.5656131,-0.949090095 13.2797821,-0.949090095 13.8580886,-0.612988672 Z"></path>
                </g>
                <g id="Polygon-Copy-2">
                    <use fill="url(#linearGradient-4)" fill-rule="evenodd" xlink:href="#path-6"></use>
                    <path stroke="#FFFFFF" stroke-width="2" d="M13.8580886,18.2498432 L25.9192477,25.2595747 C26.4926038,25.592799 26.8453952,26.2058813 26.8453952,26.8690371 L26.8453952,40.898396 C26.8453952,41.5615518 26.4926038,42.1746341 25.9192477,42.5078584 L13.8580886,49.5175899 C13.2797821,49.8536913 12.5656131,49.8536913 11.9873067,49.5175899 L-0.0738524977,42.5078584 C-0.647208535,42.1746341 -1,41.5615518 -1,40.898396 L-1,26.8690371 C-1,26.2058813 -0.647208535,25.592799 -0.0738524977,25.2595747 L11.9873067,18.2498432 C12.5656131,17.9137418 13.2797821,17.9137418 13.8580886,18.2498432 Z"></path>
                </g>
                <g id="Polygon-Copy">
                    <use fill="url(#linearGradient-4)" fill-rule="evenodd" xlink:href="#path-7"></use>
                    <path stroke="#FFFFFF" stroke-width="2" d="M30.0119347,8.71002018 L42.0730939,15.7197517 C42.6464499,16.052976 42.9992414,16.6660583 42.9992414,17.3292141 L42.9992414,31.358573 C42.9992414,32.0217288 42.6464499,32.6348111 42.0730939,32.9680354 L30.0119347,39.9777669 C29.4336283,40.3138683 28.7194592,40.3138683 28.1411528,39.9777669 L16.0799937,32.9680354 C15.5066376,32.6348111 15.1538462,32.0217288 15.1538462,31.358573 L15.1538462,17.3292141 C15.1538462,16.6660583 15.5066376,16.052976 16.0799937,15.7197517 L28.1411528,8.71002018 C28.7194592,8.37391875 29.4336283,8.37391875 30.0119347,8.71002018 Z"></path>
                </g>
            </g>
            <g id="Group-3" transform="translate(0.000000, 256.000000)">
                <g id="Group" transform="translate(156.500000, 29.085106) scale(-1, 1) translate(-156.500000, -29.085106) translate(113.000000, 9.085106)">
                    <g id="Path-2-Copy" transform="translate(43.270414, 19.642890) scale(-1, 1) translate(-43.270414, -19.642890) ">
                        <use fill="url(#linearGradient-8)" fill-rule="evenodd" xlink:href="#path-9"></use>
                        <path stroke="#323232" stroke-width="3" d="M84.5200216,1.5 C78.7709833,1.5 78.0838902,1.5 70.9365259,1.5 L18.7980731,1.5 C14.4416959,1.5 8.95442931,4.14100018 5.12276973,8.53651472 C7.99200317,11.804861 7.69085034,11.4744965 8.34335494,12.5528035 C9.34633391,14.2102927 9.67353078,15.8110262 9.39661371,17.8583475 C9.15315159,19.6583275 8.46093419,21.8317741 6.99205957,25.6045407 C6.49494314,26.8813715 3.7660827,33.6457209 2.14328152,37.7144997 C12.0821466,38.3007823 19.9163813,35.4361649 22.6080024,29.8489828 L23.0150256,29.0040967 L23.9528335,29.0000142 C28.5214278,28.9801259 58.1470952,28.9990145 58.7726227,29.0205303 C62.8193346,28.9949397 66.8814064,26.3210099 68.3180878,21.0223557 L68.618366,19.9148936 L69.765815,19.9148936 C72.80583,19.9148936 76.6538966,16.0439013 76.6529118,12.9792054 L76.6524297,11.4787234 L78.1529118,11.4787234 C81.0717392,11.4787234 85.0400085,7.08808669 85.0400085,3.89361702 L85.0400085,3.24468085 C85.0400085,2.74722812 85.0400085,2.51725817 85.0400085,2.0503374 L84.5200216,1.5 Z"></path>
                    </g>
                    <path d="M61.8709677,18.5212766 L19.4193548,18.5212766 C18.6710981,18.5212766 18.0645161,19.1682252 18.0645161,19.9662766 C18.0645161,20.7643281 18.6710981,21.4112767 19.4193548,21.4112767 L61.8709677,21.4112767 C62.6192245,21.4112767 63.2258065,20.7643281 63.2258065,19.9662766 C63.2258065,19.1682252 62.6192245,18.5212766 61.8709677,18.5212766 Z" id="Path-3-Copy-3" fill="#323232" fill-rule="nonzero" transform="translate(40.645161, 19.966277) scale(-1, 1) translate(-40.645161, -19.966277) "></path>
                    <path d="M54.1290323,10.0851064 L11.6774194,10.0851064 C10.9291626,10.0851064 10.3225806,10.7320549 10.3225806,11.5301064 C10.3225806,12.3281579 10.9291626,12.9751065 11.6774194,12.9751065 L54.1290323,12.9751065 C54.877289,12.9751065 55.483871,12.3281579 55.483871,11.5301064 C55.483871,10.7320549 54.877289,10.0851064 54.1290323,10.0851064 Z" id="Path-3-Copy-4" fill="#323232" fill-rule="nonzero" transform="translate(32.903226, 11.530106) scale(-1, 1) translate(-32.903226, -11.530106) "></path>
                </g>
                <g id="Group" transform="translate(0.000000, 9.085106)">
                    <g id="Path-2-Copy" transform="translate(43.269594, 19.642890) scale(-1, 1) translate(-43.269594, -19.642890) ">
                        <use fill="url(#linearGradient-8)" fill-rule="evenodd" xlink:href="#path-10"></use>
                        <path stroke="#323232" stroke-width="3" d="M84.5192016,1.5 C78.7701633,1.5 78.0830701,1.5 70.9357058,1.5 L18.797253,1.5 C14.4408759,1.5 8.95360927,4.14100018 5.1219497,8.53651472 C7.99118313,11.804861 7.6900303,11.4744965 8.34253491,12.5528035 C9.34551387,14.2102927 9.67271075,15.8110262 9.39579367,17.8583475 C9.15233156,19.6583275 8.46011415,21.8317741 6.99123953,25.6045407 C6.4941231,26.8813715 3.76526267,33.6457209 2.14246148,37.7144997 C12.0813265,38.3007823 19.9155613,35.4361649 22.6071823,29.8489828 L23.0142056,29.0040967 L23.9520135,29.0000142 C28.5206078,28.9801259 58.1462751,28.9990145 58.7718027,29.0205303 C62.8185146,28.9949397 66.8805864,26.3210099 68.3172678,21.0223557 L68.6175459,19.9148936 L69.764995,19.9148936 C72.80501,19.9148936 76.6530765,16.0439013 76.6520918,12.9792054 L76.6516097,11.4787234 L78.1520917,11.4787234 C81.0709192,11.4787234 85.0391885,7.08808669 85.0391885,3.89361702 L85.0391885,3.24468085 C85.0391885,2.74722812 85.0391885,2.51725817 85.0391885,2.0503374 L84.5192016,1.5 Z"></path>
                    </g>
                    <path d="M61.8709677,18.5212766 L19.4193548,18.5212766 C18.6710981,18.5212766 18.0645161,19.1682252 18.0645161,19.9662766 C18.0645161,20.7643281 18.6710981,21.4112767 19.4193548,21.4112767 L61.8709677,21.4112767 C62.6192245,21.4112767 63.2258065,20.7643281 63.2258065,19.9662766 C63.2258065,19.1682252 62.6192245,18.5212766 61.8709677,18.5212766 Z" id="Path-3-Copy-3" fill="#323232" fill-rule="nonzero" transform="translate(40.645161, 19.966277) scale(-1, 1) translate(-40.645161, -19.966277) "></path>
                    <path d="M54.1290323,10.0851064 L11.6774194,10.0851064 C10.9291626,10.0851064 10.3225806,10.7320549 10.3225806,11.5301064 C10.3225806,12.3281579 10.9291626,12.9751065 11.6774194,12.9751065 L54.1290323,12.9751065 C54.877289,12.9751065 55.483871,12.3281579 55.483871,11.5301064 C55.483871,10.7320549 54.877289,10.0851064 54.1290323,10.0851064 Z" id="Path-3-Copy-4" fill="#323232" fill-rule="nonzero" transform="translate(32.903226, 11.530106) scale(-1, 1) translate(-32.903226, -11.530106) "></path>
                </g>
                <g id="Oval">
                    <use fill="url(#linearGradient-11)" fill-rule="evenodd" xlink:href="#path-12"></use>
                    <ellipse stroke="#323232" stroke-width="3" cx="100.000053" cy="30.4974651" rx="28.8200605" ry="28.9974651"></ellipse>
                </g>
                <g id="Group-2" transform="translate(78.709677, 15.574468)" fill="#FFFFFF">
                    <path d="M5.06148403,14.8863398 L12.6936197,7.25420411 C13.5370262,6.41079761 13.5370262,5.04336549 12.6936197,4.19995899 L12.6936197,4.19995899 L12.6936197,4.19995899 C11.8502132,3.35655249 10.4827811,3.35655249 9.63937462,4.19995899 L9.63937462,4.19995899 L0.530610088,13.3087235 C0.0960640929,13.7432695 -0.114591972,14.3169229 -0.101358108,14.8863398 C-0.114591972,15.4557567 0.0960640929,16.0294101 0.530610088,16.4639561 L9.63937462,25.5727206 L9.63937462,25.5727206 C10.4827811,26.4161271 11.8502132,26.4161271 12.6936197,25.5727206 L12.6936197,25.5727206 L12.6936197,25.5727206 C13.5370262,24.7293141 13.5370262,23.361882 12.6936197,22.5184755 L5.06148403,14.8863398 Z" id="Combined-Shape"></path>
                    <path d="M33.2181661,14.8863398 L40.8503018,7.25420411 C41.6937083,6.41079761 41.6937083,5.04336549 40.8503018,4.19995899 L40.8503018,4.19995899 L40.8503018,4.19995899 C40.0068953,3.35655249 38.6394631,3.35655249 37.7960567,4.19995899 L37.7960567,4.19995899 L28.6872921,13.3087235 C28.2527461,13.7432695 28.0420901,14.3169229 28.0553239,14.8863398 C28.0420901,15.4557567 28.2527461,16.0294101 28.6872921,16.4639561 L37.7960567,25.5727206 L37.7960567,25.5727206 C38.6394631,26.4161271 40.0068953,26.4161271 40.8503018,25.5727206 L40.8503018,25.5727206 L40.8503018,25.5727206 C41.6937083,24.7293141 41.6937083,23.361882 40.8503018,22.5184755 L33.2181661,14.8863398 Z" id="Combined-Shape" transform="translate(34.768797, 14.886340) scale(-1, 1) translate(-34.768797, -14.886340) "></path>
                    <rect id="Rectangle-21" transform="translate(20.711350, 14.925532) rotate(15.000000) translate(-20.711350, -14.925532) " x="18.5516725" y="0.591287579" width="4.31935486" height="28.6684887" rx="2.15967743"></rect>
                </g>
            </g>
            <g id="Group-3-Copy" transform="translate(0.000000, 319.000000)">
                <g id="Group" transform="translate(0.000000, 6.765957)">
                    <g id="Path-2-Copy" transform="translate(45.371849, 21.170291) scale(-1, 1) translate(-45.371849, -21.170291) ">
                        <use fill="url(#linearGradient-8)" fill-rule="evenodd" xlink:href="#path-13"></use>
                        <path stroke="#323232" stroke-width="3" d="M88.8060372,1.5 C76.2100957,1.5 75.4248855,1.5 58.5968759,1.5 L13.3956319,1.5 C9.77364152,1.5 5.20390068,3.66780373 1.96945857,7.28429264 C5.70376991,11.6493642 7.47593281,14.7419703 8.30867268,19.2023604 C9.35165063,24.788845 8.34965289,31.6770193 4.94634178,40.7953634 C13.2484117,41.222288 19.7565979,38.8129625 21.9901864,34.1976357 L22.3979153,33.3551339 L23.3338831,33.3510779 C27.2727573,33.3340089 58.1487151,33.3503303 58.6763854,33.3685693 C62.05213,33.3473188 65.4423024,31.1258277 66.6444911,26.7121753 L66.9456863,25.606383 L68.0917645,25.606383 C70.5773288,25.606383 73.7748884,22.4044018 73.774085,19.9153778 L73.7736007,18.4148936 L75.2740849,18.4148936 C77.651181,18.4148936 80.9564054,14.7745054 80.9564054,12.1702128 L80.9564054,10.6703679 L82.4562503,10.6702128 C87.1076072,10.6697318 89.2436982,8.2457382 89.2436982,2.76595745 C89.2436982,2.40500089 89.2436982,2.20925138 89.2436982,1.91351329 L88.8060372,1.5 Z"></path>
                    </g>
                    <path d="M66.6309068,24.1340364 L25.0829061,24.1340364 C24.3505765,24.1340364 23.7569061,24.8056093 23.7569061,25.6340364 C23.7569061,26.4624636 24.3505765,27.1340364 25.0829061,27.1340364 L66.6309068,27.1340364 C67.3632364,27.1340364 67.9569068,26.4624636 67.9569068,25.6340364 C67.9569068,24.8056093 67.3632364,24.1340364 66.6309068,24.1340364 Z" id="Path-3-Copy-3" fill="#323232" fill-rule="nonzero" transform="translate(45.856906, 25.634036) scale(-1, 1) translate(-45.856906, -25.634036) "></path>
                    <path d="M60.0040056,16.9340548 L18.4560049,16.9340548 C17.7236753,16.9340548 17.1300049,17.6056276 17.1300049,18.4340548 C17.1300049,19.2624819 17.7236753,19.9340548 18.4560049,19.9340548 L60.0040056,19.9340548 C60.7363352,19.9340548 61.3300056,19.2624819 61.3300056,18.4340548 C61.3300056,17.6056276 60.7363352,16.9340548 60.0040056,16.9340548 Z" id="Path-3-Copy-4" fill="#323232" fill-rule="nonzero" transform="translate(39.230005, 18.434055) scale(-1, 1) translate(-39.230005, -18.434055) "></path>
                    <path d="M52.8187521,9.23404255 L11.2707514,9.23404255 C10.5384218,9.23404255 9.94475138,9.90561543 9.94475138,10.7340426 C9.94475138,11.5624697 10.5384218,12.2340426 11.2707514,12.2340426 L52.8187521,12.2340426 C53.5510817,12.2340426 54.1447521,11.5624697 54.1447521,10.7340426 C54.1447521,9.90561543 53.5510817,9.23404255 52.8187521,9.23404255 Z" id="Path-3-Copy-5" fill="#323232" fill-rule="nonzero" transform="translate(32.044752, 10.734043) scale(-1, 1) translate(-32.044752, -10.734043) "></path>
                </g>
                <g id="Group" transform="translate(165.500000, 28.265957) scale(-1, 1) translate(-165.500000, -28.265957) translate(120.000000, 6.765957)">
                    <g id="Path-2-Copy" transform="translate(45.371849, 21.170291) scale(-1, 1) translate(-45.371849, -21.170291) ">
                        <use fill="url(#linearGradient-8)" fill-rule="evenodd" xlink:href="#path-14"></use>
                        <path stroke="#323232" stroke-width="3" d="M88.8060372,1.5 C76.2100957,1.5 75.4248855,1.5 58.5968759,1.5 L13.3956319,1.5 C9.77364152,1.5 5.20390068,3.66780373 1.96945857,7.28429264 C5.70376991,11.6493642 7.47593281,14.7419703 8.30867268,19.2023604 C9.35165063,24.788845 8.34965289,31.6770193 4.94634178,40.7953634 C13.2484117,41.222288 19.7565979,38.8129625 21.9901864,34.1976357 L22.3979153,33.3551339 L23.3338831,33.3510779 C27.2727573,33.3340089 58.1487151,33.3503303 58.6763854,33.3685693 C62.05213,33.3473188 65.4423024,31.1258277 66.6444911,26.7121753 L66.9456863,25.606383 L68.0917645,25.606383 C70.5773288,25.606383 73.7748884,22.4044018 73.774085,19.9153778 L73.7736007,18.4148936 L75.2740849,18.4148936 C77.651181,18.4148936 80.9564054,14.7745054 80.9564054,12.1702128 L80.9564054,10.6703679 L82.4562503,10.6702128 C87.1076072,10.6697318 89.2436982,8.2457382 89.2436982,2.76595745 C89.2436982,2.40500089 89.2436982,2.20925138 89.2436982,1.91351329 L88.8060372,1.5 Z"></path>
                    </g>
                    <path d="M66.6309068,24.1340364 L25.0829061,24.1340364 C24.3505765,24.1340364 23.7569061,24.8056093 23.7569061,25.6340364 C23.7569061,26.4624636 24.3505765,27.1340364 25.0829061,27.1340364 L66.6309068,27.1340364 C67.3632364,27.1340364 67.9569068,26.4624636 67.9569068,25.6340364 C67.9569068,24.8056093 67.3632364,24.1340364 66.6309068,24.1340364 Z" id="Path-3-Copy-3" fill="#323232" fill-rule="nonzero" transform="translate(45.856906, 25.634036) scale(-1, 1) translate(-45.856906, -25.634036) "></path>
                    <path d="M60.0010726,16.9340548 L18.4530718,16.9340548 C17.7207423,16.9340548 17.1270718,17.6056276 17.1270718,18.4340548 C17.1270718,19.2624819 17.7207423,19.9340548 18.4530718,19.9340548 L60.0010726,19.9340548 C60.7334022,19.9340548 61.3270726,19.2624819 61.3270726,18.4340548 C61.3270726,17.6056276 60.7334022,16.9340548 60.0010726,16.9340548 Z" id="Path-3-Copy-4" fill="#323232" fill-rule="nonzero" transform="translate(39.227072, 18.434055) scale(-1, 1) translate(-39.227072, -18.434055) "></path>
                    <path d="M52.8187521,9.23404255 L11.2707514,9.23404255 C10.5384218,9.23404255 9.94475138,9.90561543 9.94475138,10.7340426 C9.94475138,11.5624697 10.5384218,12.2340426 11.2707514,12.2340426 L52.8187521,12.2340426 C53.5510817,12.2340426 54.1447521,11.5624697 54.1447521,10.7340426 C54.1447521,9.90561543 53.5510817,9.23404255 52.8187521,9.23404255 Z" id="Path-3-Copy-5" fill="#323232" fill-rule="nonzero" transform="translate(32.044752, 10.734043) scale(-1, 1) translate(-32.044752, -10.734043) "></path>
                </g>
                <g id="Oval">
                    <use fill="url(#linearGradient-15)" fill-rule="evenodd" xlink:href="#path-16"></use>
                    <ellipse stroke="#323232" stroke-width="3" cx="105.321293" cy="30.3600006" rx="28.8212926" ry="28.8600006"></ellipse>
                </g>
                <g id="Group-2" transform="translate(84.000000, 15.000000)" fill="#FFFFFF">
                    <path d="M5.05338021,14.9606124 L12.7341347,7.27985784 C13.5788388,6.43515379 13.5788388,5.06561793 12.7341347,4.22091388 L12.7341347,4.22091388 L12.7341347,4.22091388 C11.8894307,3.37620984 10.5198948,3.37620984 9.67519077,4.22091388 L9.67519077,4.22091388 L0.510440068,13.3856646 C0.0765217403,13.8195829 -0.134495897,14.391994 -0.122612845,14.9606124 C-0.134495897,15.5292307 0.0765217402,16.1016418 0.510440068,16.5355601 L9.67519077,25.7003108 C10.5198948,26.5450149 11.8894307,26.5450149 12.7341347,25.7003108 C13.5788388,24.8556068 13.5788388,23.4860709 12.7341347,22.6413669 L5.05338021,14.9606124 Z" id="Combined-Shape"></path>
                    <path d="M33.2533802,14.9606124 L40.9341347,7.27985784 C41.7788388,6.43515379 41.7788388,5.06561793 40.9341347,4.22091388 L40.9341347,4.22091388 L40.9341347,4.22091388 C40.0894307,3.37620984 38.7198948,3.37620984 37.8751908,4.22091388 L37.8751908,4.22091388 L28.7104401,13.3856646 C28.2765217,13.8195829 28.0655041,14.391994 28.0773872,14.9606124 C28.0655041,15.5292307 28.2765217,16.1016418 28.7104401,16.5355601 L37.8751908,25.7003108 C38.7198948,26.5450149 40.0894307,26.5450149 40.9341347,25.7003108 L40.9341347,25.7003108 L40.9341347,25.7003108 C41.7788388,24.8556068 41.7788388,23.4860709 40.9341347,22.6413669 L33.2533802,14.9606124 Z" id="Combined-Shape" transform="translate(34.822287, 14.960612) scale(-1, 1) translate(-34.822287, -14.960612) "></path>
                    <rect id="Rectangle-21" transform="translate(20.743214, 15.000000) rotate(15.000000) translate(-20.743214, -15.000000) " x="18.5802135" y="0.594237695" width="4.32600002" height="28.8115246" rx="2.16300001"></rect>
                </g>
            </g>
            <g id="Group" transform="translate(0.000000, 234.000000)" fill-rule="nonzero" fill="#EBB55C">
                <circle id="Oval" cx="2.71771429" cy="17.2817143" r="2.57057143"></circle>
                <path d="M0.148285714,7.00171429 L0.148285714,10.428 C5.34428571,10.428 9.572,14.6557143 9.572,19.852 L12.9988571,19.852 C12.9988571,12.7662857 7.23257143,7.00171429 0.148285714,7.00171429 Z" id="Shape"></path>
                <path d="M0.148285714,0.148 L0.148285714,3.57485714 C9.12342857,3.57485714 16.4248571,10.8765714 16.4248571,19.8522857 L19.852,19.8522857 C19.8517143,8.98742857 11.0131429,0.148 0.148285714,0.148 Z" id="Shape"></path>
            </g>
            <path d="M7.85314126,210 C17.2869148,210 22.4489796,202.30315 22.4489796,195.639764 C22.4489796,195.423228 22.4489796,195.206693 22.4389756,194.990157 C23.4393758,194.281496 24.3097239,193.385827 25,192.372047 C24.0796319,192.775591 23.0892357,193.041339 22.0488195,193.169291 C23.1092437,192.549213 23.9195678,191.555118 24.3097239,190.374016 C23.3193277,190.954724 22.2188876,191.36811 21.0484194,191.594488 C20.1080432,190.610236 18.777511,190 17.3069228,190 C14.4757903,190 12.1748699,192.26378 12.1748699,195.049213 C12.1748699,195.442913 12.22489,195.826772 12.304922,196.200787 C8.04321729,195.994094 4.26170468,193.976378 1.73069228,190.925197 C1.29051621,191.673228 1.04041617,192.53937 1.04041617,193.464567 C1.04041617,195.216535 1.95078031,196.761811 3.32132853,197.667323 C2.4809924,197.637795 1.69067627,197.411417 1.00040016,197.037402 C1.00040016,197.057087 1.00040016,197.076772 1.00040016,197.106299 C1.00040016,199.547244 2.77110844,201.594488 5.11204482,202.057087 C4.68187275,202.175197 4.23169268,202.234252 3.7615046,202.234252 C3.43137255,202.234252 3.1112445,202.204724 2.80112045,202.145669 C3.45138055,204.153543 5.35214086,205.610236 7.59303721,205.649606 C5.83233293,207.007874 3.62144858,207.814961 1.2204882,207.814961 C0.81032413,207.814961 0.400160064,207.795276 0,207.746063 C2.26090436,209.163386 4.96198479,210 7.85314126,210" id="Shape" fill="#1DA1F2" fill-rule="nonzero"></path>
            <g id="Group-10" transform="translate(0.000000, 212.000000)">
                <polygon id="Fill-55" fill="#FFFFFF" points="4.31372549 19.9372549 18.7582353 19.9372549 18.7582353 2.15686275 4.31372549 2.15686275"></polygon>
                <path d="M18.8960784,0 L1.10372549,0 C0.494117647,0 0,0.493529412 0,1.10254902 L0,18.8743137 C0,19.4831373 0.494117647,19.9768627 1.10372549,19.9768627 L10.682549,19.9768627 L10.682549,12.2407843 L8.07607843,12.2407843 L8.07607843,9.22588235 L10.682549,9.22588235 L10.682549,7.00254902 C10.682549,4.42215686 12.2603922,3.0172549 14.5647059,3.0172549 C15.6686275,3.0172549 16.6172549,3.09921569 16.8937255,3.13607843 L16.8937255,5.83254902 L15.2954902,5.83333333 C14.0421569,5.83333333 13.7996078,6.42803922 13.7996078,7.30098039 L13.7996078,9.22588235 L16.7884314,9.22588235 L16.3994118,12.2407843 L13.7996078,12.2407843 L13.7996078,19.9768627 L18.8960784,19.9768627 C19.5056863,19.9768627 20,19.4831373 20,18.8743137 L20,1.10254902 C20,0.493529412 19.5056863,0 18.8960784,0" id="Fill-56" fill="#3B5998"></path>
            </g>
            <g id="Group-3-Copy-2" transform="translate(0.000000, 382.000000)">
                <g id="Group" transform="translate(0.000000, 23.765957)">
                    <g id="Path-2-Copy" transform="translate(45.371849, 21.170291) scale(-1, 1) translate(-45.371849, -21.170291) ">
                        <use fill="url(#linearGradient-8)" fill-rule="evenodd" xlink:href="#path-17"></use>
                        <path stroke="#323232" stroke-width="3" d="M88.8060372,1.5 C76.2100957,1.5 75.4248855,1.5 58.5968759,1.5 L13.3956319,1.5 C9.77364152,1.5 5.20390068,3.66780373 1.96945857,7.28429264 C5.70376991,11.6493642 7.47593281,14.7419703 8.30867268,19.2023604 C9.35165063,24.788845 8.34965289,31.6770193 4.94634178,40.7953634 C13.2484117,41.222288 19.7565979,38.8129625 21.9901864,34.1976357 L22.3979153,33.3551339 L23.3338831,33.3510779 C27.2727573,33.3340089 58.1487151,33.3503303 58.6763854,33.3685693 C62.05213,33.3473188 65.4423024,31.1258277 66.6444911,26.7121753 L66.9456863,25.606383 L68.0917645,25.606383 C70.5773288,25.606383 73.7748884,22.4044018 73.774085,19.9153778 L73.7736007,18.4148936 L75.2740849,18.4148936 C77.651181,18.4148936 80.9564054,14.7745054 80.9564054,12.1702128 L80.9564054,10.6703679 L82.4562503,10.6702128 C87.1076072,10.6697318 89.2436982,8.2457382 89.2436982,2.76595745 C89.2436982,2.40500089 89.2436982,2.20925138 89.2436982,1.91351329 L88.8060372,1.5 Z"></path>
                    </g>
                    <path d="M66.6309068,24.1340364 L25.0829061,24.1340364 C24.3505765,24.1340364 23.7569061,24.8056093 23.7569061,25.6340364 C23.7569061,26.4624636 24.3505765,27.1340364 25.0829061,27.1340364 L66.6309068,27.1340364 C67.3632364,27.1340364 67.9569068,26.4624636 67.9569068,25.6340364 C67.9569068,24.8056093 67.3632364,24.1340364 66.6309068,24.1340364 Z" id="Path-3-Copy-3" fill="#323232" fill-rule="nonzero" transform="translate(45.856906, 25.634036) scale(-1, 1) translate(-45.856906, -25.634036) "></path>
                    <path d="M60.0040056,16.9340548 L18.4560049,16.9340548 C17.7236753,16.9340548 17.1300049,17.6056276 17.1300049,18.4340548 C17.1300049,19.2624819 17.7236753,19.9340548 18.4560049,19.9340548 L60.0040056,19.9340548 C60.7363352,19.9340548 61.3300056,19.2624819 61.3300056,18.4340548 C61.3300056,17.6056276 60.7363352,16.9340548 60.0040056,16.9340548 Z" id="Path-3-Copy-4" fill="#323232" fill-rule="nonzero" transform="translate(39.230005, 18.434055) scale(-1, 1) translate(-39.230005, -18.434055) "></path>
                    <path d="M52.8187521,9.23404255 L11.2707514,9.23404255 C10.5384218,9.23404255 9.94475138,9.90561543 9.94475138,10.7340426 C9.94475138,11.5624697 10.5384218,12.2340426 11.2707514,12.2340426 L52.8187521,12.2340426 C53.5510817,12.2340426 54.1447521,11.5624697 54.1447521,10.7340426 C54.1447521,9.90561543 53.5510817,9.23404255 52.8187521,9.23404255 Z" id="Path-3-Copy-5" fill="#323232" fill-rule="nonzero" transform="translate(32.044752, 10.734043) scale(-1, 1) translate(-32.044752, -10.734043) "></path>
                </g>
                <g id="Group" transform="translate(165.500000, 45.265957) scale(-1, 1) translate(-165.500000, -45.265957) translate(120.000000, 23.765957)">
                    <g id="Path-2-Copy" transform="translate(45.371849, 21.170291) scale(-1, 1) translate(-45.371849, -21.170291) ">
                        <use fill="url(#linearGradient-8)" fill-rule="evenodd" xlink:href="#path-18"></use>
                        <path stroke="#323232" stroke-width="3" d="M88.8060372,1.5 C76.2100957,1.5 75.4248855,1.5 58.5968759,1.5 L13.3956319,1.5 C9.77364152,1.5 5.20390068,3.66780373 1.96945857,7.28429264 C5.70376991,11.6493642 7.47593281,14.7419703 8.30867268,19.2023604 C9.35165063,24.788845 8.34965289,31.6770193 4.94634178,40.7953634 C13.2484117,41.222288 19.7565979,38.8129625 21.9901864,34.1976357 L22.3979153,33.3551339 L23.3338831,33.3510779 C27.2727573,33.3340089 58.1487151,33.3503303 58.6763854,33.3685693 C62.05213,33.3473188 65.4423024,31.1258277 66.6444911,26.7121753 L66.9456863,25.606383 L68.0917645,25.606383 C70.5773288,25.606383 73.7748884,22.4044018 73.774085,19.9153778 L73.7736007,18.4148936 L75.2740849,18.4148936 C77.651181,18.4148936 80.9564054,14.7745054 80.9564054,12.1702128 L80.9564054,10.6703679 L82.4562503,10.6702128 C87.1076072,10.6697318 89.2436982,8.2457382 89.2436982,2.76595745 C89.2436982,2.40500089 89.2436982,2.20925138 89.2436982,1.91351329 L88.8060372,1.5 Z"></path>
                    </g>
                    <path d="M66.6309068,24.1340364 L25.0829061,24.1340364 C24.3505765,24.1340364 23.7569061,24.8056093 23.7569061,25.6340364 C23.7569061,26.4624636 24.3505765,27.1340364 25.0829061,27.1340364 L66.6309068,27.1340364 C67.3632364,27.1340364 67.9569068,26.4624636 67.9569068,25.6340364 C67.9569068,24.8056093 67.3632364,24.1340364 66.6309068,24.1340364 Z" id="Path-3-Copy-3" fill="#323232" fill-rule="nonzero" transform="translate(45.856906, 25.634036) scale(-1, 1) translate(-45.856906, -25.634036) "></path>
                    <path d="M60.0010726,16.9340548 L18.4530718,16.9340548 C17.7207423,16.9340548 17.1270718,17.6056276 17.1270718,18.4340548 C17.1270718,19.2624819 17.7207423,19.9340548 18.4530718,19.9340548 L60.0010726,19.9340548 C60.7334022,19.9340548 61.3270726,19.2624819 61.3270726,18.4340548 C61.3270726,17.6056276 60.7334022,16.9340548 60.0010726,16.9340548 Z" id="Path-3-Copy-4" fill="#323232" fill-rule="nonzero" transform="translate(39.227072, 18.434055) scale(-1, 1) translate(-39.227072, -18.434055) "></path>
                    <path d="M52.8187521,9.23404255 L11.2707514,9.23404255 C10.5384218,9.23404255 9.94475138,9.90561543 9.94475138,10.7340426 C9.94475138,11.5624697 10.5384218,12.2340426 11.2707514,12.2340426 L52.8187521,12.2340426 C53.5510817,12.2340426 54.1447521,11.5624697 54.1447521,10.7340426 C54.1447521,9.90561543 53.5510817,9.23404255 52.8187521,9.23404255 Z" id="Path-3-Copy-5" fill="#323232" fill-rule="nonzero" transform="translate(32.044752, 10.734043) scale(-1, 1) translate(-32.044752, -10.734043) "></path>
                </g>
                <g id="Oval">
                    <use fill="url(#linearGradient-19)" fill-rule="evenodd" xlink:href="#path-20"></use>
                    <ellipse stroke="#323232" stroke-width="3" cx="105.321293" cy="47.3600006" rx="28.8212926" ry="28.8600006"></ellipse>
                </g>
                <g id="Group-2" transform="translate(84.000000, 32.000000)" fill="#FFFFFF">
                    <path d="M5.05338021,14.9606124 L12.7341347,7.27985784 C13.5788388,6.43515379 13.5788388,5.06561793 12.7341347,4.22091388 L12.7341347,4.22091388 L12.7341347,4.22091388 C11.8894307,3.37620984 10.5198948,3.37620984 9.67519077,4.22091388 L9.67519077,4.22091388 L0.510440068,13.3856646 C0.0765217403,13.8195829 -0.134495897,14.391994 -0.122612845,14.9606124 C-0.134495897,15.5292307 0.0765217402,16.1016418 0.510440068,16.5355601 L9.67519077,25.7003108 C10.5198948,26.5450149 11.8894307,26.5450149 12.7341347,25.7003108 C13.5788388,24.8556068 13.5788388,23.4860709 12.7341347,22.6413669 L5.05338021,14.9606124 Z" id="Combined-Shape"></path>
                    <path d="M33.2533802,14.9606124 L40.9341347,7.27985784 C41.7788388,6.43515379 41.7788388,5.06561793 40.9341347,4.22091388 L40.9341347,4.22091388 L40.9341347,4.22091388 C40.0894307,3.37620984 38.7198948,3.37620984 37.8751908,4.22091388 L37.8751908,4.22091388 L28.7104401,13.3856646 C28.2765217,13.8195829 28.0655041,14.391994 28.0773872,14.9606124 C28.0655041,15.5292307 28.2765217,16.1016418 28.7104401,16.5355601 L37.8751908,25.7003108 C38.7198948,26.5450149 40.0894307,26.5450149 40.9341347,25.7003108 L40.9341347,25.7003108 L40.9341347,25.7003108 C41.7788388,24.8556068 41.7788388,23.4860709 40.9341347,22.6413669 L33.2533802,14.9606124 Z" id="Combined-Shape" transform="translate(34.822287, 14.960612) scale(-1, 1) translate(-34.822287, -14.960612) "></path>
                    <rect id="Rectangle-21" transform="translate(20.743214, 15.000000) rotate(15.000000) translate(-20.743214, -15.000000) " x="18.5802135" y="0.594237695" width="4.32600002" height="28.8115246" rx="2.16300001"></rect>
                </g>
                <g id="Group-4" transform="translate(78.000000, 0.000000)" fill="#EBB55C">
                    <polygon id="Star" transform="translate(9.541401, 11.257521) rotate(-27.000000) translate(-9.541401, -11.257521) " points="9.54140052 15.4978775 5.30050712 17.6983159 6.11044569 13.0377126 2.67949085 9.73705497 7.42095382 9.05708211 9.54140052 4.81672514 11.6618472 9.05708211 16.4033102 9.73705497 12.9723553 13.0377126 13.7822939 17.6983159"></polygon>
                    <polygon id="Star-Copy" points="27.4171474 10.6811523 23.176254 12.8815907 23.9861926 8.22098743 20.5552378 4.92032983 25.2967007 4.24035697 27.4171474 0 29.5375941 4.24035697 34.2790571 4.92032983 30.8481023 8.22098743 31.6580408 12.8815907"></polygon>
                    <polygon id="Star-Copy-2" transform="translate(44.802638, 11.257521) rotate(27.000000) translate(-44.802638, -11.257521) " points="44.8026383 15.4978775 40.5617449 17.6983159 41.3716835 13.0377126 37.9407286 9.73705497 42.6821916 9.05708211 44.8026383 4.81672514 46.923085 9.05708211 51.664548 9.73705497 48.2335931 13.0377126 49.0435317 17.6983159"></polygon>
                </g>
            </g>
            <path d="M59.5311333,7.09420035 L63.7955962,2.8168717 C64.1922904,2.41898067 64.7873317,2.41898067 65.1840259,2.8168717 C65.5807201,3.21476274 65.5807201,3.8115993 65.1840259,4.20949033 L60.2253482,9.1831283 C60.0270011,9.38207381 59.7294805,9.48154657 59.5311333,9.48154657 C59.2336127,9.48154657 58.936092,9.38207381 58.7377449,9.1831283 L53.7790672,4.20949033 C53.382373,3.8115993 53.382373,3.21476274 53.7790672,2.8168717 C54.1757614,2.41898067 54.7708028,2.41898067 55.167497,2.8168717 L59.5311333,7.09420035 Z" id="back_arrow" fill="#2A98CB" transform="translate(59.481547, 6.000000) rotate(-90.000000) translate(-59.481547, -6.000000) "></path>
            <g id="list_white" transform="translate(70.000000, 0.000000)" fill="#FFFFFF">
                <rect id="Rectangle-31" x="0" y="0" width="22.3492063" height="2" rx="1"></rect>
                <rect id="Rectangle-31-Copy" x="0" y="6" width="22.3492063" height="2" rx="1"></rect>
                <rect id="Rectangle-31-Copy-2" x="0" y="12" width="22.3492063" height="2" rx="1"></rect>
            </g>
            <g id="close" transform="translate(95.000000, 0.000000)" fill="#FFFFFF">
                <rect id="Rectangle-35" transform="translate(6.717514, 6.717514) rotate(-45.000000) translate(-6.717514, -6.717514) " x="-1.78248558" y="5.71751442" width="17" height="2" rx="1"></rect>
                <rect id="Rectangle-35-Copy" transform="translate(6.717514, 6.717514) rotate(45.000000) translate(-6.717514, -6.717514) " x="-1.78248558" y="5.71751442" width="17" height="2" rx="1"></rect>
            </g>
            <g id="guides_header" transform="translate(70.000000, 16.000000)" fill-rule="nonzero" fill="#FFFFFF">
                <path d="M58,0.115137728 C59.1658333,-0.0824521488 60,0.72571589 60,1.72638565 L60,48.367773 C60,49.2157982 59.4158333,49.8942184 58.6666667,50.0638234 L30.3333333,56 C30.1191667,56 29.8625,56 29.6666667,56 L1.33333333,50.0638234 C0.583333333,49.8942184 0,49.1309957 0,48.367773 L0,1.72638565 C0,0.616320636 0.840833333,-0.166406646 2,0.0303352061 L30,5.96651178 L58,0.115137728 Z M57.1376812,26.5018483 L57.1376812,23.4418605 L31.3043478,28.8692219 L31.3043478,31.9292098 L57.1376812,26.5018483 Z M57.1376812,34.3158018 L57.1376812,31.255814 L31.3043478,36.6831754 L31.3043478,39.7431632 L57.1376812,34.3158018 Z M57.1376812,43.4320809 L57.1376812,40.372093 L31.3043478,45.7994545 L31.3043478,48.8594423 L57.1376812,43.4320809 Z M57.1376812,18.6878948 L57.1376812,15.627907 L31.3043478,21.0552684 L31.3043478,24.1152563 L57.1376812,18.6878948 Z M57.1376812,9.57161576 L57.1376812,6.51162791 L31.3043478,11.9389893 L31.3043478,14.9989772 L57.1376812,9.57161576 Z M28.4896085,14.9175256 L28.4896085,11.8635387 L2.69565217,6.51162791 L2.69565217,9.65869483 L28.4896085,14.9175256 Z M28.4896085,23.9175256 L28.4896085,20.8635387 L2.69565217,15.5116279 L2.69565217,18.6586948 L28.4896085,23.9175256 Z M28.4896085,31.9175256 L28.4896085,28.8635387 L2.69565217,23.5116279 L2.69565217,26.6586948 L28.4896085,31.9175256 Z M28.4896085,39.9175256 L28.4896085,36.8635387 L2.69565217,31.5116279 L2.69565217,34.6586948 L28.4896085,39.9175256 Z M28.4896085,48.9175256 L28.4896085,45.8635387 L2.69565217,40.5116279 L2.69565217,43.6586948 L28.4896085,48.9175256 Z" id="Combined-Shape"></path>
            </g>
            <path d="M115.53125,96 L109.65625,96 L109.65625,116.631579 L103.78125,110.736842 L97.90625,116.631579 L97.90625,96 L77.34375,96 C73.3046875,96 70,99.3157895 70,103.368421 L70,144.631579 C70,148.684211 73.3046875,152 77.34375,152 L115.53125,152 C116.339062,152 117,151.336842 117,150.526316 C117,137.169579 117,128.274421 117,97.4736842 C117,96.6631579 116.339062,96 115.53125,96 Z M114.0625,143.157895 L77.34375,143.157895 C75.4027969,143.157895 75.399125,146.105263 77.34375,146.105263 L114.0625,146.105263 L114.0625,149.052632 L77.34375,149.052632 C71.5208906,149.052632 71.5106094,140.210526 77.34375,140.210526 L114.0625,140.210526 L114.0625,143.157895 Z" id="docus_header" fill="#FFFFFF" fill-rule="nonzero"></path>
            <g id="flag" transform="translate(70.000000, 74.000000)" fill="#FFFFFF">
                <rect id="Rectangle-22" x="0.619047619" y="1.25" width="8.18219462" height="8.26086957" rx="1.25"></rect>
                <rect id="Rectangle-22-Copy" x="4.81780538" y="3.31521739" width="8.18219462" height="8.26086957" rx="1.25"></rect>
                <rect id="Rectangle-10" x="0" y="0" width="1.23809524" height="20" rx="0.619047619"></rect>
            </g>
            <g id="warning" transform="translate(70.000000, 154.000000)">
                <path d="M7.09817619,2.36115567 C8.09744159,0.584683857 9.90486532,0.588785034 10.9018238,2.36115567 L16.9697517,13.1485831 C17.9651278,14.9181406 17.0331313,16.5 15.0074602,16.5 L2.99253976,16.5 C0.960779118,16.5 0.036857066,14.9146119 1.03024827,13.1485831 L7.09817619,2.36115567 Z" id="Triangle" stroke="#FFFFFF"></path>
                <path d="M9.78481013,7.89240506 L9.78481013,14.3860759 L8.21518987,14.3860759 L8.21518987,7.89240506 L9.78481013,7.89240506 Z M10,6 C10,6.13502177 9.97257411,6.26160278 9.91772152,6.37974684 C9.86286892,6.49789089 9.79008484,6.60126538 9.69936709,6.68987342 C9.60864934,6.77848146 9.50211032,6.84915585 9.37974684,6.90189873 C9.25738335,6.95464161 9.12658297,6.98101266 8.98734177,6.98101266 C8.85232,6.98101266 8.72468415,6.95464161 8.60443038,6.90189873 C8.48417661,6.84915585 8.37974728,6.77848146 8.29113924,6.68987342 C8.2025312,6.60126538 8.1318568,6.49789089 8.07911392,6.37974684 C8.02637104,6.26160278 8,6.13502177 8,6 C8,5.8607588 8.02637104,5.72995842 8.07911392,5.60759494 C8.1318568,5.48523146 8.2025312,5.37974728 8.29113924,5.29113924 C8.37974728,5.2025312 8.48417661,5.1318568 8.60443038,5.07911392 C8.72468415,5.02637104 8.85232,5 8.98734177,5 C9.12658297,5 9.25738335,5.02637104 9.37974684,5.07911392 C9.50211032,5.1318568 9.60864934,5.2025312 9.69936709,5.29113924 C9.79008484,5.37974728 9.86286892,5.48523146 9.91772152,5.60759494 C9.97257411,5.72995842 10,5.8607588 10,6 Z" id="i" fill="#FFFFFF" transform="translate(9.000000, 9.693038) rotate(180.000000) translate(-9.000000, -9.693038) "></path>
            </g>
            <path d="M89.6940709,190.218084 L84.8639184,185.387748 C87.3896343,182.133289 87.1610486,177.418811 84.1737774,174.431973 C82.6054078,172.863611 80.5203718,172 78.302777,172 C76.0849734,172 74.0001461,172.863611 72.4319853,174.431973 C70.8636157,176.000125 70,178.08515 70,180.302942 C70,182.520734 70.8638245,184.605759 72.4317765,186.174121 C74.0001461,187.742274 76.0849734,188.605885 78.302777,188.605885 C80.1686211,188.605885 81.9390647,187.992568 83.3884444,186.864676 L88.2181794,191.694386 C88.4219234,191.898129 88.6891286,192 88.9561251,192 C89.2231216,192 89.4905356,191.898129 89.6940709,191.694386 C90.1019764,191.286482 90.1019764,190.62557 89.6940709,190.218084 Z M73.9078768,184.697611 C72.7338437,183.523584 72.0873323,181.962738 72.0873323,180.302734 C72.0873323,178.642521 72.7338437,177.081883 73.9080856,175.907856 C75.0819099,174.733829 76.6425556,174.087321 78.302777,174.087321 C79.9627896,174.087321 81.5238528,174.733829 82.6978858,175.907856 C85.1211035,178.331061 85.1211035,182.273988 82.6978858,184.697402 C81.5238528,185.871429 79.9627896,186.517937 78.302777,186.517937 C76.6425556,186.518146 75.0819099,185.871638 73.9078768,184.697611 Z" id="Shape" fill="#9B9B9B" fill-rule="nonzero"></path>
            <g id="Error-Circle-Copy-3" transform="translate(80.142136, 226.142136) rotate(45.000000) translate(-80.142136, -226.142136) translate(70.142136, 216.142136)">
                <circle id="Oval-6" fill="#9B9B9B" cx="10" cy="10" r="10"></circle>
                <g id="Group-25" transform="translate(3.333333, 3.333333)" fill="#FFFFFF">
                    <rect id="Rectangle-17" x="5.55555556" y="0" width="2.22222222" height="13.3333333" rx="1.11111111"></rect>
                    <rect id="Rectangle-17" x="0" y="5.55555556" width="13.3333333" height="2.22222222" rx="1.11111111"></rect>
                </g>
            </g>
            <g id="check" transform="translate(70.000000, 194.000000)">
                <circle id="Oval" fill="#65A61E" cx="10" cy="10" r="10"></circle>
                <path d="M5.5,10.4255884 L8.17756399,13.2125927 L8.17756399,13.2125927 C8.60270448,13.6551099 9.30608008,13.6691966 9.74859736,13.2440561 C9.80221258,13.1925463 9.85052231,13.1357851 9.89280017,13.0746259 L14.5,6.40985411" id="Path-4" stroke="#FFFFFF" stroke-width="2.22222222" stroke-linecap="round"></path>
            </g>
            <g id="replicated-version" transform="translate(150.000000, 124.000000)">
                <rect id="Rectangle-11" stroke="#326DE6" stroke-width="2" x="1" y="1" width="23" height="28" rx="3.52941176"></rect>
                <path d="M18.1221889,22.9411765 L14.5424943,22.9411765 L12.0919651,17.219318 L10.3621798,17.219318 L10.3621798,22.9411765 L7.14285714,22.9411765 L7.14285714,7.10516154 L13.1250313,7.10516154 C16.0560565,7.10516154 18.0020649,9.19447086 18.0020649,12.1147555 C18.0020649,14.8451029 16.5365524,16.2221476 15.2151886,16.6495064 L18.1221889,22.9411765 Z M12.6445354,14.4177441 C13.8938248,14.4177441 14.7106679,13.5392845 14.7106679,12.1622398 C14.7106679,10.785195 13.8938248,9.9067354 12.6445354,9.9067354 L10.3621798,9.9067354 L10.3621798,14.4177441 L12.6445354,14.4177441 Z" id="R-Copy-4" fill="#326DE6"></path>
            </g>
            <g id="Ecosystem" transform="translate(150.000000, 57.000000)">
                <g id="Rectangle-10">
                    <use fill="#FFFFFF" fill-rule="evenodd" xlink:href="#path-21"></use>
                    <path stroke="#326DE6" stroke-width="2" d="M18.8666667,9 L17,37 L26.8622271,37 L24.9955605,9 L18.8666667,9 Z"></path>
                </g>
                <path d="M20.1192002,6.40625 C21.4500107,5.13745117 19.5188584,3.99316406 20.1192002,2.65063477" id="Path-5" stroke="#326DE6" stroke-width="2" stroke-linecap="round"></path>
                <path d="M23.1192002,6.24047852 C24.6157227,5.13769531 21.8693848,1.96508789 23.2989142,0.849609375" id="Path-5-Copy" stroke="#326DE6" stroke-width="2" stroke-linecap="round"></path>
                <g id="Rectangle-12">
                    <use fill="#FFFFFF" fill-rule="evenodd" xlink:href="#path-22"></use>
                    <rect stroke="#326DE6" stroke-width="2" x="1" y="20" width="16" height="17" rx="1"></rect>
                </g>
                <g id="Rectangle-13">
                    <use fill="#FFFFFF" fill-rule="evenodd" xlink:href="#path-23"></use>
                    <rect stroke="#326DE6" stroke-width="1" x="4.5" y="23.5" width="3" height="3" rx="1"></rect>
                </g>
                <g id="Rectangle-13-Copy-2">
                    <use fill="#FFFFFF" fill-rule="evenodd" xlink:href="#path-24"></use>
                    <rect stroke="#326DE6" stroke-width="1" x="4.5" y="29.5" width="3" height="3" rx="1"></rect>
                </g>
                <g id="Rectangle-13-Copy">
                    <use fill="#FFFFFF" fill-rule="evenodd" xlink:href="#path-25"></use>
                    <rect stroke="#326DE6" stroke-width="1" x="10.5" y="23.5" width="3" height="3" rx="1"></rect>
                </g>
                <g id="Rectangle-13-Copy-3">
                    <use fill="#FFFFFF" fill-rule="evenodd" xlink:href="#path-26"></use>
                    <rect stroke="#326DE6" stroke-width="1" x="10.5" y="29.5" width="3" height="3" rx="1"></rect>
                </g>
            </g>
            <g id="Custom-Checks-icon" transform="translate(150.000000, 25.000000)">
                <polyline id="Path-4" stroke="#326DE6" stroke-width="2" points="17.4224096 1.12173357 17.4224096 8.29107643 23.1557541 8.29107643"></polyline>
                <path d="M18.6002203,1.87777615 L1.10344407,1.87777615 L1.10344407,28.7518509 L23.7603058,28.7518509 L23.7603058,7.54552437 L18.6002203,1.87777615 Z" id="Path-7" stroke="#326DE6" stroke-width="2"></path>
                <rect id="Rectangle-14" fill="#326DE6" x="5" y="9" width="8" height="1" rx="0.5"></rect>
                <rect id="Rectangle-14-Copy-6" fill="#326DE6" x="5" y="6" width="6" height="1" rx="0.5"></rect>
                <rect id="Rectangle-14-Copy" fill="#326DE6" x="5" y="12" width="15" height="1" rx="0.5"></rect>
                <rect id="Rectangle-14-Copy-2" fill="#326DE6" x="5" y="15" width="15" height="1" rx="0.5"></rect>
                <rect id="Rectangle-14-Copy-5" fill="#326DE6" x="5" y="24" width="15" height="1" rx="0.5"></rect>
                <rect id="Rectangle-14-Copy-3" fill="#326DE6" x="5" y="18" width="12" height="1" rx="0.5"></rect>
                <rect id="Rectangle-14-Copy-4" fill="#326DE6" x="5" y="21" width="8" height="1" rx="0.5"></rect>
            </g>
            <g id="Containers" transform="translate(150.000000, 97.000000)">
                <g id="Rectangle-9">
                    <use fill="#FFFFFF" fill-rule="evenodd" xlink:href="#path-27"></use>
                    <rect stroke="#BC4752" stroke-width="2" x="1" y="12" width="8" height="8" rx="1"></rect>
                </g>
                <g id="Rectangle-9-Copy">
                    <use fill="#FFFFFF" fill-rule="evenodd" xlink:href="#path-28"></use>
                    <rect stroke="#BC4752" stroke-width="2" x="12" y="12" width="8" height="8" rx="1"></rect>
                </g>
                <g id="Rectangle-9-Copy-2">
                    <use fill="#FFFFFF" fill-rule="evenodd" xlink:href="#path-29"></use>
                    <rect stroke="#BC4752" stroke-width="2" x="23" y="12" width="8" height="8" rx="1"></rect>
                </g>
                <g id="Rectangle-9-Copy-3">
                    <use fill="#FFFFFF" fill-rule="evenodd" xlink:href="#path-30"></use>
                    <rect stroke="#BC4752" stroke-width="2" x="7" y="1" width="8" height="8" rx="1"></rect>
                </g>
                <g id="Rectangle-9-Copy-4">
                    <use fill="#FFFFFF" fill-rule="evenodd" xlink:href="#path-31"></use>
                    <rect stroke="#BC4752" stroke-width="2" x="18" y="1" width="8" height="8" rx="1"></rect>
                </g>
            </g>
            <g id="Docker" transform="translate(184.000000, 97.000000)">
                <g id="Group-23" transform="translate(2.914286, 0.000000)">
                    <g id="Rectangle-16">
                        <use fill="#FFFFFF" fill-rule="evenodd" xlink:href="#path-32"></use>
                        <path stroke="#BC4752" stroke-width="1.7" d="M0.85,11.8511494 L4.00714286,11.8511494 L4.00714286,8.66609195 L0.982993197,8.66609195 C0.909543083,8.66609195 0.85,8.72563504 0.85,8.79908515 L0.85,11.8511494 Z"></path>
                    </g>
                    <g id="Rectangle-16-Copy">
                        <use fill="#FFFFFF" fill-rule="evenodd" xlink:href="#path-33"></use>
                        <rect stroke="#BC4752" stroke-width="1.7" x="4.73571429" y="8.66609195" width="3.15714286" height="3.18505747"></rect>
                    </g>
                    <g id="Rectangle-16-Copy-2">
                        <use fill="#FFFFFF" fill-rule="evenodd" xlink:href="#path-34"></use>
                        <rect stroke="#BC4752" stroke-width="1.7" x="8.62142857" y="8.66609195" width="3.15714286" height="3.18505747"></rect>
                    </g>
                    <g id="Rectangle-16-Copy-3">
                        <use fill="#FFFFFF" fill-rule="evenodd" xlink:href="#path-35"></use>
                        <rect stroke="#BC4752" stroke-width="1.7" x="12.5071429" y="8.66609195" width="3.15714286" height="3.18505747"></rect>
                    </g>
                    <g id="Rectangle-16-Copy-4">
                        <use fill="#FFFFFF" fill-rule="evenodd" xlink:href="#path-36"></use>
                        <path stroke="#BC4752" stroke-width="1.7" d="M16.3928571,8.66609195 L16.3928571,11.8511494 L19.55,11.8511494 L19.55,8.79908515 C19.55,8.72563504 19.4904569,8.66609195 19.4170068,8.66609195 L16.3928571,8.66609195 Z"></path>
                    </g>
                    <g id="Rectangle-16-Copy-5">
                        <use fill="#FFFFFF" fill-rule="evenodd" xlink:href="#path-37"></use>
                        <rect stroke="#BC4752" stroke-width="1.7" x="12.5071429" y="4.75804598" width="3.15714286" height="3.18505747" rx="0.982993197"></rect>
                    </g>
                    <g id="Rectangle-16-Copy-8">
                        <use fill="#FFFFFF" fill-rule="evenodd" xlink:href="#path-38"></use>
                        <path stroke="#BC4752" stroke-width="1.7" d="M12.5071429,4.03505747 L15.6642857,4.03505747 L15.6642857,0.982993197 C15.6642857,0.909543083 15.6047426,0.85 15.5312925,0.85 L12.6401361,0.85 C12.5666859,0.85 12.5071429,0.909543083 12.5071429,0.982993197 L12.5071429,4.03505747 Z"></path>
                    </g>
                    <g id="Rectangle-16-Copy-6">
                        <use fill="#FFFFFF" fill-rule="evenodd" xlink:href="#path-39"></use>
                        <rect stroke="#BC4752" stroke-width="1.7" x="8.62142857" y="4.75804598" width="3.15714286" height="3.18505747"></rect>
                    </g>
                    <g id="Rectangle-16-Copy-7">
                        <use fill="#FFFFFF" fill-rule="evenodd" xlink:href="#path-40"></use>
                        <rect stroke="#BC4752" stroke-width="1.7" x="4.73571429" y="4.75804598" width="3.15714286" height="3.18505747" rx="0.982993197"></rect>
                    </g>
                </g>
                <g id="Group-24" transform="translate(0.000000, 5.862069)">
                    <path d="M0.860465165,6.65970722 C1.16160472,16.1893387 7.94802968,19.5270702 16.7570795,16.9006291 C21.9088496,15.3646155 26.5753115,11.4263277 28.021982,8.0781539 L28.2232638,7.61230727 L28.7288387,7.56847207 C29.8054732,7.4751239 31.1512481,6.90165283 32.1600501,6.1423044 C32.6074668,5.80552354 32.9357315,5.46766682 33.0867064,5.2062943 C33.0902545,5.20015167 33.0935825,5.19462281 33.0967209,5.18967377 C31.8006865,4.32943261 30.9831592,4.10603172 29.4667116,4.17612431 L28.6278908,4.21489592 L28.5789123,3.37660917 C28.5133439,2.25437992 27.6516581,1.22953191 26.7174638,0.901039177 C26.6610298,0.961218964 26.5993059,1.0453266 26.5379283,1.15311501 C26.2736288,1.61726473 26.1066013,2.34309123 26.1066013,3.32703084 C26.1066013,5.70504001 25.9286023,6.65970722 24.793703,6.65970722 C7.57846915,6.65970722 6.81958632,6.65970722 0.860465165,6.65970722 Z" id="Path-21" stroke="#BC4752" stroke-width="1.7"></path>
                    <ellipse id="Oval-10" fill="#BC4752" cx="7.28571429" cy="11.137931" rx="1.21428571" ry="1.23754789"></ellipse>
                </g>
            </g>
            <g id="Installation-Icon" transform="translate(150.000000, 0.000000)">
                <g id="Rectangle-6">
                    <use fill="#FFFFFF" fill-rule="evenodd" xlink:href="#path-41"></use>
                    <rect stroke="#BC4752" stroke-width="2" x="1" y="1" width="27" height="21" rx="3"></rect>
                </g>
                <path d="M8.04132231,9.94285714 L10.5950413,6.25714286 C10.9256198,5.91428571 11.4214876,5.91428571 11.7520661,6.25714286 C12.0826446,6.6 12.0826446,7.11428571 11.7520661,7.45714286 L8.61983471,11.7428571 C8.45454545,11.9142857 8.20661157,12 8.04132231,12 C7.79338843,12 7.54545455,11.9142857 7.38016529,11.7428571 L4.24793388,7.45714286 C3.91735537,7.11428571 3.91735537,6.6 4.24793388,6.25714286 C4.5785124,5.91428571 5.07438017,5.91428571 5.40495868,6.25714286 L8.04132231,9.94285714 Z" id="down_arrow" fill="#BC4752" transform="translate(8.000000, 9.000000) rotate(-90.000000) translate(-8.000000, -9.000000) "></path>
                <rect id="Rectangle-5" fill="#BC4752" x="11" y="12" width="7" height="2" rx="1"></rect>
            </g>
            <g id="Custom-Checks-icon" transform="translate(184.000000, 25.000000)">
                <g id="Path-7">
                    <use fill="#FFFFFF" fill-rule="evenodd" xlink:href="#path-42"></use>
                    <path stroke="#4D9CD7" stroke-width="2" d="M18.6002203,1.87777615 L1.10344407,1.87777615 L1.10344407,28.7518509 L23.7603058,28.7518509 L23.7603058,7.54552437 L18.6002203,1.87777615 Z"></path>
                </g>
                <polyline id="Path-4" stroke="#4D9CD7" stroke-width="2" points="17.4224096 1.12173357 17.4224096 8.29107643 23.1557541 8.29107643"></polyline>
                <rect id="Rectangle-14" fill="#4D9CD7" x="5" y="9" width="8" height="1" rx="0.5"></rect>
                <rect id="Rectangle-14-Copy-6" fill="#4D9CD7" x="5" y="6" width="6" height="1" rx="0.5"></rect>
                <rect id="Rectangle-14-Copy" fill="#4D9CD7" x="5" y="12" width="15" height="1" rx="0.5"></rect>
                <rect id="Rectangle-14-Copy-2" fill="#4D9CD7" x="5" y="15" width="15" height="1" rx="0.5"></rect>
                <rect id="Rectangle-14-Copy-5" fill="#4D9CD7" x="5" y="24" width="15" height="1" rx="0.5"></rect>
                <rect id="Rectangle-14-Copy-3" fill="#4D9CD7" x="5" y="18" width="12" height="1" rx="0.5"></rect>
                <rect id="Rectangle-14-Copy-4" fill="#4D9CD7" x="5" y="21" width="8" height="1" rx="0.5"></rect>
            </g>
            <g id="Group" transform="translate(184.000000, 57.000000)" fill-rule="nonzero" fill="#4D9CD7">
                <path d="M12.7177645,0.0991256842 C5.699434,0.0991256842 -1.23978947e-05,5.87843853 -1.23978947e-05,12.9622863 C-0.00559481603,13.3570871 0.201831331,13.7243105 0.542838757,13.9233399 C0.883846183,14.1223694 1.30560279,14.1223694 1.64661021,13.9233399 C1.98761764,13.7243105 2.19504379,13.3570871 2.18946137,12.9622863 C2.18946137,7.04711389 6.89748663,2.28859937 12.7177645,2.28859937 C16.683914,2.28859937 20.1530803,4.49434084 21.9546069,7.76228358 L19.1578824,7.76228358 C18.763081,7.7567001 18.3958565,7.96412601 18.1968264,8.30513386 C17.9977963,8.6461417 17.9977963,9.06789914 18.1968264,9.40890699 C18.3958565,9.74991483 18.763081,9.95734074 19.1578824,9.95175726 L24.0841985,9.95175726 C24.6887799,9.95169681 25.1788749,9.46160184 25.1789353,8.85702042 L25.1789353,3.93070463 C25.1835714,3.63442886 25.0679205,3.34892583 24.8583963,3.13940157 C24.648872,2.92987732 24.363369,2.81422647 24.0670932,2.81886253 C23.7767489,2.82339275 23.5000967,2.94307956 23.2980002,3.15159181 C23.0959037,3.36010406 22.9849186,3.64036051 22.9894616,3.93070463 L22.9894616,5.31623095 C20.6610929,2.14715389 16.9110719,0.0991256842 12.7177645,0.0991256842 L12.7177645,0.0991256842 Z M24.6144616,11.8504415 C24.3241168,11.8549717 24.0474642,11.9746589 23.8453676,12.1831717 C23.6432711,12.3916846 23.5322863,12.6719417 23.5368301,12.9622863 C23.5368301,18.8774779 18.8288045,23.6359705 13.0085266,23.6359705 C9.03427611,23.6359705 5.55293084,21.4256147 3.75460663,18.1451811 L6.56840874,18.1451811 C6.96321016,18.1507645 7.33043465,17.9433386 7.52946477,17.6023308 C7.72849489,17.2613229 7.72849489,16.8395655 7.52946477,16.4985576 C7.33043465,16.1575498 6.96321016,15.9501239 6.56840874,15.9557074 L1.64209287,15.9557074 C1.03751144,15.9557678 0.547416472,16.4458628 0.547356023,17.0504442 L0.547356023,21.97676 C0.542812989,22.2671041 0.653798098,22.5473606 0.855894589,22.7558728 C1.05799108,22.9643851 1.33464328,23.0840719 1.6249876,23.0886021 C1.92126339,23.0932382 2.20676644,22.9775873 2.41629071,22.7680631 C2.62581499,22.5585388 2.74146584,22.2730358 2.73682979,21.97676 L2.73682979,20.6083389 C5.06522558,23.7796547 8.815274,25.8254442 13.0085266,25.8254442 C20.0268572,25.8254442 25.7263037,20.0461642 25.7263037,12.9622863 C25.7309413,12.6660096 25.6152911,12.3805051 25.4057667,12.1709797 C25.1962423,11.9614542 24.9107384,11.8458026 24.6144616,11.8504387 L24.6144616,11.8504415 Z" id="Shape"></path>
            </g>
            <g id="Installation-Icon" transform="translate(184.000000, 0.000000)">
                <g id="Rectangle-6">
                    <use fill="#FFFFFF" fill-rule="evenodd" xlink:href="#path-43"></use>
                    <rect stroke="#4D9CD7" stroke-width="2" x="1" y="1" width="27" height="21" rx="3"></rect>
                </g>
                <path d="M8.04132231,9.94285714 L10.5950413,6.25714286 C10.9256198,5.91428571 11.4214876,5.91428571 11.7520661,6.25714286 C12.0826446,6.6 12.0826446,7.11428571 11.7520661,7.45714286 L8.61983471,11.7428571 C8.45454545,11.9142857 8.20661157,12 8.04132231,12 C7.79338843,12 7.54545455,11.9142857 7.38016529,11.7428571 L4.24793388,7.45714286 C3.91735537,7.11428571 3.91735537,6.6 4.24793388,6.25714286 C4.5785124,5.91428571 5.07438017,5.91428571 5.40495868,6.25714286 L8.04132231,9.94285714 Z" id="down_arrow" fill="#4D9CD7" transform="translate(8.000000, 9.000000) rotate(-90.000000) translate(-8.000000, -9.000000) "></path>
                <rect id="Rectangle-5" fill="#4D9CD7" x="11" y="12" width="7" height="2" rx="1"></rect>
            </g>
        </g>
    </g>
</svg>