<?xml version="1.0" encoding="UTF-8"?>
<svg width="20px" height="20px" viewBox="0 0 20 20" version="1.1" xmlns="http://www.w3.org/2000/svg" xmlns:xlink="http://www.w3.org/1999/xlink">
    <!-- Generator: Sketch 46.2 (44496) - http://www.bohemiancoding.com/sketch -->
    <title>Shape</title>
    <desc>Created with Sketch.</desc>
    <defs></defs>
    <g id="Page-1" stroke="none" stroke-width="1" fill="none" fill-rule="evenodd">
        <path d="M19.6940709,18.2180843 L14.8639184,13.3877483 C17.3896343,10.1332888 17.1610486,5.41881073 14.1737774,2.43197261 C12.6054078,0.863611218 10.5203718,0 8.30277695,0 C6.08497336,0 4.00014613,0.863611218 2.4319853,2.43197261 C0.863615725,4.00012525 0,6.08515035 0,8.30294237 C0,10.5207344 0.86382448,12.6057595 2.43177655,14.1741209 C4.00014613,15.7422735 6.08497336,16.6058847 8.30277695,16.6058847 C10.1686211,16.6058847 11.9390647,15.9925684 13.3884444,14.8646759 L18.2181794,19.6943856 C18.4219234,19.8981285 18.6891286,20 18.9561251,20 C19.2231216,20 19.4905356,19.8981285 19.6940709,19.6943856 C20.1019764,19.2864822 20.1019764,18.6255702 19.6940709,18.2180843 Z M3.75785266,12.2427326 C2.62424833,11.1093758 2,9.6025996 2,8.00010074 C2,6.39740035 2.62424833,4.89082572 3.75805422,3.75746888 C4.89145698,2.62411204 6.3983606,2 8.00141096,2 C9.60425975,2 11.1115665,2.62411204 12.2451708,3.75746888 C14.5849431,6.0967303 14.5849431,9.90306813 12.2451708,12.2425311 C11.1115665,13.3758879 9.60425975,14 8.00141096,14 C6.3983606,14.0002015 4.89145698,13.3760894 3.75785266,12.2427326 Z" id="Shape" fill="#FFFFFF" fill-rule="nonzero"></path>
    </g>
</svg>